{
    "asset" : {
        "generator" : "Khronos glTF Blender I/O v3.2.40",
        "version" : "2.0"
    },
    "scene" : 0,
    "scenes" : [
        {
            "name" : "Scene",
            "nodes" : [
                0
            ]
        }
    ],
    "nodes" : [
        {
            "mesh" : 0,
            "name" : "lever_box",
            "translation" : [
                -1.1651232242584229,
                0,
                1.2503917217254639
            ]
        }
    ],
    "materials" : [
        {
            "doubleSided" : true,
            "name" : "lever1",
            "normalTexture" : {
                "index" : 0
            },
            "pbrMetallicRoughness" : {
                "baseColorTexture" : {
                    "index" : 2
                },
                "metallicRoughnessTexture" : {
                    "index" : 1
                }
            }
        }
    ],
    "meshes" : [
        {
            "name" : "Mesh.012",
            "primitives" : [
                {
                    "attributes" : {
                        "POSITION" : 0,
                        "NORMAL" : 1,
                        "TEXCOORD_0" : 2
                    },
                    "indices" : 3,
                    "material" : 0
                }
            ]
        }
    ],
    "textures" : [
        {
            "sampler" : 0,
            "source" : 0
        },
        {
            "sampler" : 0,
            "source" : 1
        },
        {
            "sampler" : 0,
            "source" : 2
        }
    ],
    "images" : [
        {
            "mimeType" : "image/png",
            "name" : "lever1_Normal",
            "uri" : "tex/lever1_Normal.png"
        },
        {
            "mimeType" : "image/png",
            "name" : "AO-lever1_Roughness-lever1_Metallic",
            "uri" : "tex/AO-lever1_Roughness-lever1_Metallic.png"
        },
        {
            "mimeType" : "image/png",
            "name" : "lever1_Base_color-lever1_Opacity",
            "uri" : "tex/lever1_Base_color-lever1_Opacity.png"
        }
    ],
    "accessors" : [
        {
            "bufferView" : 0,
            "componentType" : 5126,
            "count" : 570,
            "max" : [
                0.1389128863811493,
                0.09999999403953552,
                0.18813368678092957
            ],
            "min" : [
                -0.1389128863811493,
                -0.005000008270144463,
                -0.18813368678092957
            ],
            "type" : "VEC3"
        },
        {
            "bufferView" : 1,
            "componentType" : 5126,
            "count" : 570,
            "type" : "VEC3"
        },
        {
            "bufferView" : 2,
            "componentType" : 5126,
            "count" : 570,
            "type" : "VEC2"
        },
        {
            "bufferView" : 3,
            "componentType" : 5123,
            "count" : 2418,
            "type" : "SCALAR"
        }
    ],
    "bufferViews" : [
        {
            "buffer" : 0,
            "byteLength" : 6840,
            "byteOffset" : 0
        },
        {
            "buffer" : 0,
            "byteLength" : 6840,
            "byteOffset" : 6840
        },
        {
            "buffer" : 0,
            "byteLength" : 4560,
            "byteOffset" : 13680
        },
        {
            "buffer" : 0,
            "byteLength" : 4836,
            "byteOffset" : 18240
        }
    ],
    "samplers" : [
        {
            "magFilter" : 9729,
            "minFilter" : 9987
        }
    ],
    "buffers" : [
        {
            "byteLength" : 23076,
            "uri" : "lever_box.bin"
        }
    ]
}
