{
    "asset" : {
        "generator" : "Khronos glTF Blender I/O v3.2.40",
        "version" : "2.0"
    },
    "scene" : 0,
    "scenes" : [
        {
            "name" : "Scene",
            "nodes" : [
                0
            ]
        }
    ],
    "nodes" : [
        {
            "mesh" : 0,
            "name" : "stairs"
        }
    ],
    "animations" : [
        {
            "channels" : [
                {
                    "sampler" : 0,
                    "target" : {
                        "node" : 0,
                        "path" : "translation"
                    }
                },
                {
                    "sampler" : 1,
                    "target" : {
                        "node" : 0,
                        "path" : "rotation"
                    }
                },
                {
                    "sampler" : 2,
                    "target" : {
                        "node" : 0,
                        "path" : "scale"
                    }
                }
            ],
            "name" : "stairs",
            "samplers" : [
                {
                    "input" : 4,
                    "interpolation" : "LINEAR",
                    "output" : 5
                },
                {
                    "input" : 4,
                    "interpolation" : "LINEAR",
                    "output" : 6
                },
                {
                    "input" : 4,
                    "interpolation" : "LINEAR",
                    "output" : 7
                }
            ]
        }
    ],
    "materials" : [
        {
            "doubleSided" : true,
            "name" : "stairs",
            "normalTexture" : {
                "index" : 0,
                "scale" : 0.10000000149011612
            },
            "occlusionTexture" : {
                "index" : 1
            },
            "pbrMetallicRoughness" : {
                "baseColorTexture" : {
                    "index" : 2
                },
                "metallicRoughnessTexture" : {
                    "index" : 1
                }
            }
        }
    ],
    "meshes" : [
        {
            "name" : "Cube.011",
            "primitives" : [
                {
                    "attributes" : {
                        "POSITION" : 0,
                        "NORMAL" : 1,
                        "TEXCOORD_0" : 2
                    },
                    "indices" : 3,
                    "material" : 0
                }
            ]
        }
    ],
    "textures" : [
        {
            "sampler" : 0,
            "source" : 0
        },
        {
            "sampler" : 0,
            "source" : 1
        },
        {
            "sampler" : 0,
            "source" : 2
        }
    ],
    "images" : [
        {
            "mimeType" : "image/png",
            "name" : "stairs_Normal",
            "uri" : "tex/stairs_Normal.png"
        },
        {
            "mimeType" : "image/png",
            "name" : "stairs_Mixed_AO-stairs_Roughness-stairs_Metallic",
            "uri" : "tex/stairs_Mixed_AO-stairs_Roughness-stairs_Metallic.png"
        },
        {
            "mimeType" : "image/png",
            "name" : "stairs_Base_color",
            "uri" : "tex/stairs_Base_color.png"
        }
    ],
    "accessors" : [
        {
            "bufferView" : 0,
            "componentType" : 5126,
            "count" : 1782,
            "max" : [
                1.0317360162734985,
                2.874610424041748,
                2.7798264026641846
            ],
            "min" : [
                -1.0317360162734985,
                4.1675320971990004e-08,
                0.019515058025717735
            ],
            "type" : "VEC3"
        },
        {
            "bufferView" : 1,
            "componentType" : 5126,
            "count" : 1782,
            "type" : "VEC3"
        },
        {
            "bufferView" : 2,
            "componentType" : 5126,
            "count" : 1782,
            "type" : "VEC2"
        },
        {
            "bufferView" : 3,
            "componentType" : 5123,
            "count" : 7032,
            "type" : "SCALAR"
        },
        {
            "bufferView" : 4,
            "componentType" : 5126,
            "count" : 149,
            "max" : [
                4.966666666666667
            ],
            "min" : [
                0.03333333333333333
            ],
            "type" : "SCALAR"
        },
        {
            "bufferView" : 5,
            "componentType" : 5126,
            "count" : 149,
            "type" : "VEC3"
        },
        {
            "bufferView" : 6,
            "componentType" : 5126,
            "count" : 149,
            "type" : "VEC4"
        },
        {
            "bufferView" : 7,
            "componentType" : 5126,
            "count" : 149,
            "type" : "VEC3"
        }
    ],
    "bufferViews" : [
        {
            "buffer" : 0,
            "byteLength" : 21384,
            "byteOffset" : 0
        },
        {
            "buffer" : 0,
            "byteLength" : 21384,
            "byteOffset" : 21384
        },
        {
            "buffer" : 0,
            "byteLength" : 14256,
            "byteOffset" : 42768
        },
        {
            "buffer" : 0,
            "byteLength" : 14064,
            "byteOffset" : 57024
        },
        {
            "buffer" : 0,
            "byteLength" : 596,
            "byteOffset" : 71088
        },
        {
            "buffer" : 0,
            "byteLength" : 1788,
            "byteOffset" : 71684
        },
        {
            "buffer" : 0,
            "byteLength" : 2384,
            "byteOffset" : 73472
        },
        {
            "buffer" : 0,
            "byteLength" : 1788,
            "byteOffset" : 75856
        }
    ],
    "samplers" : [
        {
            "magFilter" : 9729,
            "minFilter" : 9987
        }
    ],
    "buffers" : [
        {
            "byteLength" : 77644,
            "uri" : "stairs.bin"
        }
    ]
}
