{
    "asset" : {
        "generator" : "Khronos glTF Blender I/O v3.2.40",
        "version" : "2.0"
    },
    "scene" : 0,
    "scenes" : [
        {
            "name" : "Scene",
            "nodes" : [
                0
            ]
        }
    ],
    "nodes" : [
        {
            "mesh" : 0,
            "name" : "wooden_box",
            "translation" : [
                -1.7288198471069336,
                0,
                2.412391185760498
            ]
        }
    ],
    "materials" : [
        {
            "doubleSided" : true,
            "name" : "wooden_box",
            "normalTexture" : {
                "index" : 0,
                "scale" : 2.5
            },
            "occlusionTexture" : {
                "index" : 1
            },
            "pbrMetallicRoughness" : {
                "baseColorTexture" : {
                    "index" : 2
                },
                "metallicRoughnessTexture" : {
                    "index" : 1
                }
            }
        }
    ],
    "meshes" : [
        {
            "name" : "Mesh.006",
            "primitives" : [
                {
                    "attributes" : {
                        "POSITION" : 0,
                        "NORMAL" : 1,
                        "TEXCOORD_0" : 2
                    },
                    "indices" : 3,
                    "material" : 0
                }
            ]
        }
    ],
    "textures" : [
        {
            "sampler" : 0,
            "source" : 0
        },
        {
            "sampler" : 0,
            "source" : 1
        },
        {
            "sampler" : 0,
            "source" : 2
        }
    ],
    "images" : [
        {
            "mimeType" : "image/png",
            "name" : "woodenBox_Normal",
            "uri" : "tex/woodenBox_Normal.png"
        },
        {
            "mimeType" : "image/png",
            "name" : "woodenBox_MixedAO-woodenBox_Roughness-woodenBox_Metallic",
            "uri" : "tex/woodenBox_MixedAO-woodenBox_Roughness-woodenBox_Metallic.png"
        },
        {
            "mimeType" : "image/png",
            "name" : "woodenBox_Base_color-woodenBox_Opacity",
            "uri" : "tex/woodenBox_Base_color-woodenBox_Opacity.png"
        }
    ],
    "accessors" : [
        {
            "bufferView" : 0,
            "componentType" : 5126,
            "count" : 2816,
            "max" : [
                0.5299950838088989,
                1.0299999713897705,
                0.528933048248291
            ],
            "min" : [
                -0.5300048589706421,
                5.960464477539063e-08,
                -0.53106689453125
            ],
            "type" : "VEC3"
        },
        {
            "bufferView" : 1,
            "componentType" : 5126,
            "count" : 2816,
            "type" : "VEC3"
        },
        {
            "bufferView" : 2,
            "componentType" : 5126,
            "count" : 2816,
            "type" : "VEC2"
        },
        {
            "bufferView" : 3,
            "componentType" : 5123,
            "count" : 11268,
            "type" : "SCALAR"
        }
    ],
    "bufferViews" : [
        {
            "buffer" : 0,
            "byteLength" : 33792,
            "byteOffset" : 0
        },
        {
            "buffer" : 0,
            "byteLength" : 33792,
            "byteOffset" : 33792
        },
        {
            "buffer" : 0,
            "byteLength" : 22528,
            "byteOffset" : 67584
        },
        {
            "buffer" : 0,
            "byteLength" : 22536,
            "byteOffset" : 90112
        }
    ],
    "samplers" : [
        {
            "magFilter" : 9729,
            "minFilter" : 9987
        }
    ],
    "buffers" : [
        {
            "byteLength" : 112648,
            "uri" : "wooden_box.bin"
        }
    ]
}
