{
	"asset":{
		"generator":"Khronos glTF Blender I/O v3.5.30",
		"version":"2.0"
	},
	"scene":0,
	"scenes":[
		{
			"name":"Scene",
			"nodes":[
				0
			]
		}
	],
	"nodes":[
		{
			"mesh":0,
			"name":"bot_part_04"
		}
	],
	"materials":[
		{
			"doubleSided":true,
			"name":"Material.001",
			"normalTexture":{
				"index":0
			},
			"occlusionTexture":{
				"index":1
			},
			"pbrMetallicRoughness":{
				"baseColorTexture":{
					"index":2
				},
				"metallicRoughnessTexture":{
					"index":1
				}
			}
		}
	],
	"meshes":[
		{
			"name":"Cube.045",
			"primitives":[
				{
					"attributes":{
						"POSITION":0,
						"TEXCOORD_0":1,
						"NORMAL":2
					},
					"indices":3,
					"material":0
				}
			]
		}
	],
	"textures":[
		{
			"sampler":0,
			"source":0
		},
		{
			"sampler":0,
			"source":1
		},
		{
			"sampler":0,
			"source":2
		}
	],
	"images":[
		{
			"mimeType":"image/png",
			"name":"AI_bot_Normal_OpenGL",
			"uri":"tex/AI_bot_Normal_OpenGL.png"
		},
		{
			"mimeType":"image/png",
			"name":"AI_bot_Mixed_AO-AI_bot_Roughness-AI_bot_Metallic",
			"uri":"tex/AI_bot_Mixed_AO-AI_bot_Roughness-AI_bot_Metallic.png"
		},
		{
			"mimeType":"image/png",
			"name":"AI_bot_Base_color",
			"uri":"tex/AI_bot_Base_color.png"
		}
	],
	"accessors":[
		{
			"bufferView":0,
			"componentType":5126,
			"count":458,
			"max":[
				0.5719051361083984,
				0.22163639962673187,
				0.16044190526008606
			],
			"min":[
				-0.11015073955059052,
				0.002991565503180027,
				-0.7630980014801025
			],
			"type":"VEC3"
		},
		{
			"bufferView":1,
			"componentType":5126,
			"count":458,
			"type":"VEC2"
		},
		{
			"bufferView":2,
			"componentType":5126,
			"count":458,
			"type":"VEC3"
		},
		{
			"bufferView":3,
			"componentType":5123,
			"count":1440,
			"type":"SCALAR"
		}
	],
	"bufferViews":[
		{
			"buffer":0,
			"byteLength":5496,
			"byteOffset":0,
			"target":34962
		},
		{
			"buffer":0,
			"byteLength":3664,
			"byteOffset":5496,
			"target":34962
		},
		{
			"buffer":0,
			"byteLength":5496,
			"byteOffset":9160,
			"target":34962
		},
		{
			"buffer":0,
			"byteLength":2880,
			"byteOffset":14656,
			"target":34963
		}
	],
	"samplers":[
		{
			"magFilter":9729,
			"minFilter":9987
		}
	],
	"buffers":[
		{
			"byteLength":17536,
			"uri":"bot_part_04.bin"
		}
	]
}
