{
	"asset":{
		"generator":"Khronos glTF Blender I/O v3.5.30",
		"version":"2.0"
	},
	"scene":0,
	"scenes":[
		{
			"name":"Scene",
			"nodes":[
				0
			]
		}
	],
	"nodes":[
		{
			"mesh":0,
			"name":"ball01",
			"translation":[
				6.269592761993408,
				0,
				-4.129055976867676
			]
		}
	],
	"materials":[
		{
			"doubleSided":true,
			"emissiveFactor":[
				1,
				1,
				1
			],
			"emissiveTexture":{
				"index":0
			},
			"name":"ball_01",
			"normalTexture":{
				"index":1
			},
			"occlusionTexture":{
				"index":2
			},
			"pbrMetallicRoughness":{
				"baseColorTexture":{
					"index":3
				},
				"metallicRoughnessTexture":{
					"index":2
				}
			}
		}
	],
	"meshes":[
		{
			"name":"Sphere.003",
			"primitives":[
				{
					"attributes":{
						"POSITION":0,
						"TEXCOORD_0":1,
						"NORMAL":2
					},
					"indices":3,
					"material":0
				}
			]
		}
	],
	"textures":[
		{
			"sampler":0,
			"source":0
		},
		{
			"sampler":0,
			"source":1
		},
		{
			"sampler":0,
			"source":2
		},
		{
			"sampler":0,
			"source":3
		}
	],
	"images":[
		{
			"mimeType":"image/png",
			"name":"ball01_Emissive",
			"uri":"tex/ball01_Emissive.png"
		},
		{
			"mimeType":"image/png",
			"name":"ball01_Normal",
			"uri":"tex/ball01_Normal.png"
		},
		{
			"mimeType":"image/png",
			"name":"ball01_Mixed_AO-ball01_Roughness-ball01_Metallic",
			"uri":"tex/ball01_Mixed_AO-ball01_Roughness-ball01_Metallic.png"
		},
		{
			"mimeType":"image/png",
			"name":"ball01_Base_color",
			"uri":"tex/ball01_Base_color.png"
		}
	],
	"accessors":[
		{
			"bufferView":0,
			"componentType":5126,
			"count":5983,
			"max":[
				0.5126290321350098,
				0.47621023654937744,
				0.5131324529647827
			],
			"min":[
				-0.5291347503662109,
				-0.48359254002571106,
				-0.5075312852859497
			],
			"type":"VEC3"
		},
		{
			"bufferView":1,
			"componentType":5126,
			"count":5983,
			"type":"VEC2"
		},
		{
			"bufferView":2,
			"componentType":5126,
			"count":5983,
			"type":"VEC3"
		},
		{
			"bufferView":3,
			"componentType":5123,
			"count":27312,
			"type":"SCALAR"
		}
	],
	"bufferViews":[
		{
			"buffer":0,
			"byteLength":71796,
			"byteOffset":0,
			"target":34962
		},
		{
			"buffer":0,
			"byteLength":47864,
			"byteOffset":71796,
			"target":34962
		},
		{
			"buffer":0,
			"byteLength":71796,
			"byteOffset":119660,
			"target":34962
		},
		{
			"buffer":0,
			"byteLength":54624,
			"byteOffset":191456,
			"target":34963
		}
	],
	"samplers":[
		{
			"magFilter":9729,
			"minFilter":9987
		}
	],
	"buffers":[
		{
			"byteLength":246080,
			"uri":"ball_01.bin"
		}
	]
}
