{
	"asset":{
		"generator":"Khronos glTF Blender I/O v3.5.30",
		"version":"2.0"
	},
	"scene":0,
	"scenes":[
		{
			"name":"Scene",
			"nodes":[
				0
			]
		}
	],
	"nodes":[
		{
			"mesh":0,
			"name":"bot",
			"translation":[
				8.541728019714355,
				0,
				-9.293701171875
			]
		}
	],
	"materials":[
		{
			"doubleSided":true,
			"name":"bot",
			"normalTexture":{
				"index":0
			},
			"occlusionTexture":{
				"index":1
			},
			"pbrMetallicRoughness":{
				"baseColorTexture":{
					"index":2
				},
				"metallicRoughnessTexture":{
					"index":1
				}
			}
		}
	],
	"meshes":[
		{
			"name":"Cube.018",
			"primitives":[
				{
					"attributes":{
						"POSITION":0,
						"TEXCOORD_0":1,
						"NORMAL":2
					},
					"indices":3,
					"material":0
				}
			]
		}
	],
	"textures":[
		{
			"sampler":0,
			"source":0
		},
		{
			"sampler":0,
			"source":1
		},
		{
			"sampler":0,
			"source":2
		}
	],
	"images":[
		{
			"mimeType":"image/png",
			"name":"bot_Normal_OpenGL",
			"uri":"tex/bot_Normal_OpenGL.png"
		},
		{
			"mimeType":"image/png",
			"name":"bot_Mixed_AO-bot_Roughness-bot_Metallic",
			"uri":"tex/bot_Mixed_AO-bot_Roughness-bot_Metallic.png"
		},
		{
			"mimeType":"image/png",
			"name":"bot_Base_color",
			"uri":"tex/bot_Base_color.png"
		}
	],
	"accessors":[
		{
			"bufferView":0,
			"componentType":5126,
			"count":33177,
			"max":[
				1.2153184413909912,
				1.3757023811340332,
				1.756055474281311
			],
			"min":[
				-1.2336660623550415,
				-1.1121677160263062,
				-1.7562735080718994
			],
			"type":"VEC3"
		},
		{
			"bufferView":1,
			"componentType":5126,
			"count":33177,
			"type":"VEC2"
		},
		{
			"bufferView":2,
			"componentType":5126,
			"count":33177,
			"type":"VEC3"
		},
		{
			"bufferView":3,
			"componentType":5123,
			"count":164184,
			"type":"SCALAR"
		}
	],
	"bufferViews":[
		{
			"buffer":0,
			"byteLength":398124,
			"byteOffset":0,
			"target":34962
		},
		{
			"buffer":0,
			"byteLength":265416,
			"byteOffset":398124,
			"target":34962
		},
		{
			"buffer":0,
			"byteLength":398124,
			"byteOffset":663540,
			"target":34962
		},
		{
			"buffer":0,
			"byteLength":328368,
			"byteOffset":1061664,
			"target":34963
		}
	],
	"samplers":[
		{
			"magFilter":9729,
			"minFilter":9987
		}
	],
	"buffers":[
		{
			"byteLength":1390032,
			"uri":"bot.bin"
		}
	]
}
