{
	"asset":{
		"generator":"Khronos glTF Blender I/O v3.5.30",
		"version":"2.0"
	},
	"extensionsUsed":[
		"KHR_materials_emissive_strength",
		"KHR_materials_specular",
		"KHR_materials_ior"
	],
	"scene":0,
	"scenes":[
		{
			"name":"Scene",
			"nodes":[
				0
			]
		}
	],
	"nodes":[
		{
			"mesh":0,
			"name":"camera_1"
		}
	],
	"materials":[
		{
			"doubleSided":true,
			"emissiveFactor":[
				1,
				1,
				1
			],
			"emissiveTexture":{
				"index":0
			},
			"extensions":{
				"KHR_materials_emissive_strength":{
					"emissiveStrength":6.999999523162842
				},
				"KHR_materials_specular":{
					"specularColorFactor":[
						0,
						0,
						0
					]
				},
				"KHR_materials_ior":{
					"ior":1.4500000476837158
				}
			},
			"name":"camera_1",
			"normalTexture":{
				"index":1
			},
			"occlusionTexture":{
				"index":2
			},
			"pbrMetallicRoughness":{
				"baseColorTexture":{
					"index":3
				},
				"metallicRoughnessTexture":{
					"index":2
				}
			}
		}
	],
	"meshes":[
		{
			"name":"Mesh.014",
			"primitives":[
				{
					"attributes":{
						"POSITION":0,
						"TEXCOORD_0":1,
						"NORMAL":2
					},
					"indices":3,
					"material":0
				}
			]
		}
	],
	"textures":[
		{
			"sampler":0,
			"source":0
		},
		{
			"sampler":0,
			"source":1
		},
		{
			"sampler":0,
			"source":2
		},
		{
			"sampler":0,
			"source":3
		}
	],
	"images":[
		{
			"mimeType":"image/png",
			"name":"cam1_Emissive",
			"uri":"tex/cam1_Emissive.png"
		},
		{
			"mimeType":"image/png",
			"name":"cam1_Normal_DirectX",
			"uri":"tex/cam1_Normal_DirectX.png"
		},
		{
			"mimeType":"image/png",
			"name":"AO-cam1_Roughness-cam1_Metallic",
			"uri":"tex/AO-cam1_Roughness-cam1_Metallic.png"
		},
		{
			"mimeType":"image/png",
			"name":"cam1_Base_color-cam1_Opacity",
			"uri":"tex/cam1_Base_color-cam1_Opacity.png"
		}
	],
	"accessors":[
		{
			"bufferView":0,
			"componentType":5126,
			"count":2226,
			"max":[
				0.06174969673156738,
				0.1277921199798584,
				0.09864795207977295
			],
			"min":[
				-0.06174969673156738,
				-0.014106635004281998,
				-0.21853196620941162
			],
			"type":"VEC3"
		},
		{
			"bufferView":1,
			"componentType":5126,
			"count":2226,
			"type":"VEC2"
		},
		{
			"bufferView":2,
			"componentType":5126,
			"count":2226,
			"type":"VEC3"
		},
		{
			"bufferView":3,
			"componentType":5123,
			"count":9348,
			"type":"SCALAR"
		}
	],
	"bufferViews":[
		{
			"buffer":0,
			"byteLength":26712,
			"byteOffset":0,
			"target":34962
		},
		{
			"buffer":0,
			"byteLength":17808,
			"byteOffset":26712,
			"target":34962
		},
		{
			"buffer":0,
			"byteLength":26712,
			"byteOffset":44520,
			"target":34962
		},
		{
			"buffer":0,
			"byteLength":18696,
			"byteOffset":71232,
			"target":34963
		}
	],
	"samplers":[
		{
			"magFilter":9729,
			"minFilter":9987
		}
	],
	"buffers":[
		{
			"byteLength":89928,
			"uri":"camera_1.bin"
		}
	]
}
