{
	"asset":{
		"generator":"Khronos glTF Blender I/O v3.5.30",
		"version":"2.0"
	},
	"scene":0,
	"scenes":[
		{
			"name":"Scene",
			"nodes":[
				0
			]
		}
	],
	"nodes":[
		{
			"mesh":0,
			"name":"shaft",
			"translation":[
				5.733644962310791,
				0,
				1.6851556301116943
			]
		}
	],
	"materials":[
		{
			"doubleSided":true,
			"name":"shaft",
			"normalTexture":{
				"index":0
			},
			"occlusionTexture":{
				"index":1
			},
			"pbrMetallicRoughness":{
				"baseColorTexture":{
					"index":2
				},
				"metallicRoughnessTexture":{
					"index":1
				}
			}
		}
	],
	"meshes":[
		{
			"name":"Cube.035",
			"primitives":[
				{
					"attributes":{
						"POSITION":0,
						"TEXCOORD_0":1,
						"NORMAL":2
					},
					"indices":3,
					"material":0
				}
			]
		}
	],
	"textures":[
		{
			"sampler":0,
			"source":0
		},
		{
			"sampler":0,
			"source":1
		},
		{
			"sampler":0,
			"source":2
		}
	],
	"images":[
		{
			"mimeType":"image/png",
			"name":"shaft_Normal_OpenGL",
			"uri":"tex/shaft_Normal_OpenGL.png"
		},
		{
			"mimeType":"image/png",
			"name":"shaft_Mixed_AO-shaft_Roughness-shaft_Metallic",
			"uri":"tex/shaft_Mixed_AO-shaft_Roughness-shaft_Metallic.png"
		},
		{
			"mimeType":"image/png",
			"name":"shaft_Base_color",
			"uri":"tex/shaft_Base_color.png"
		}
	],
	"accessors":[
		{
			"bufferView":0,
			"componentType":5126,
			"count":370,
			"max":[
				0.9915419816970825,
				2.42482590675354,
				0.5347424745559692
			],
			"min":[
				-0.42461055517196655,
				0,
				-0.5347424149513245
			],
			"type":"VEC3"
		},
		{
			"bufferView":1,
			"componentType":5126,
			"count":370,
			"type":"VEC2"
		},
		{
			"bufferView":2,
			"componentType":5126,
			"count":370,
			"type":"VEC3"
		},
		{
			"bufferView":3,
			"componentType":5123,
			"count":1032,
			"type":"SCALAR"
		}
	],
	"bufferViews":[
		{
			"buffer":0,
			"byteLength":4440,
			"byteOffset":0,
			"target":34962
		},
		{
			"buffer":0,
			"byteLength":2960,
			"byteOffset":4440,
			"target":34962
		},
		{
			"buffer":0,
			"byteLength":4440,
			"byteOffset":7400,
			"target":34962
		},
		{
			"buffer":0,
			"byteLength":2064,
			"byteOffset":11840,
			"target":34963
		}
	],
	"samplers":[
		{
			"magFilter":9729,
			"minFilter":9987
		}
	],
	"buffers":[
		{
			"byteLength":13904,
			"uri":"shaft.bin"
		}
	]
}
