{
	"asset":{
		"generator":"Khronos glTF Blender I/O v3.5.30",
		"version":"2.0"
	},
	"scene":0,
	"scenes":[
		{
			"name":"Scene",
			"nodes":[
				0
			]
		}
	],
	"nodes":[
		{
			"mesh":0,
			"name":"door_frame"
		}
	],
	"materials":[
		{
			"doubleSided":true,
			"name":"door_frame",
			"normalTexture":{
				"index":0
			},
			"occlusionTexture":{
				"index":1
			},
			"pbrMetallicRoughness":{
				"baseColorTexture":{
					"index":2
				},
				"metallicRoughnessTexture":{
					"index":1
				}
			}
		}
	],
	"meshes":[
		{
			"name":"Cube.019",
			"primitives":[
				{
					"attributes":{
						"POSITION":0,
						"TEXCOORD_0":1,
						"NORMAL":2
					},
					"indices":3,
					"material":0
				}
			]
		}
	],
	"textures":[
		{
			"sampler":0,
			"source":0
		},
		{
			"sampler":0,
			"source":1
		},
		{
			"sampler":0,
			"source":2
		}
	],
	"images":[
		{
			"mimeType":"image/png",
			"name":"door_frame_Normal",
			"uri":"tex/door_frame_Normal.png"
		},
		{
			"mimeType":"image/png",
			"name":"door_frame_Mixed_AO-door_frame_Roughness-door_frame_Metallic",
			"uri":"tex/door_frame_Mixed_AO-door_frame_Roughness-door_frame_Metallic.png"
		},
		{
			"mimeType":"image/png",
			"name":"door_frame_Base_color",
			"uri":"tex/door_frame_Base_color.png"
		}
	],
	"accessors":[
		{
			"bufferView":0,
			"componentType":5126,
			"count":1380,
			"max":[
				0.21665039658546448,
				2.1697659492492676,
				1.1727538108825684
			],
			"min":[
				-0.21665039658546448,
				-0.010596772655844688,
				-1.1727538108825684
			],
			"type":"VEC3"
		},
		{
			"bufferView":1,
			"componentType":5126,
			"count":1380,
			"type":"VEC2"
		},
		{
			"bufferView":2,
			"componentType":5126,
			"count":1380,
			"type":"VEC3"
		},
		{
			"bufferView":3,
			"componentType":5123,
			"count":4272,
			"type":"SCALAR"
		}
	],
	"bufferViews":[
		{
			"buffer":0,
			"byteLength":16560,
			"byteOffset":0,
			"target":34962
		},
		{
			"buffer":0,
			"byteLength":11040,
			"byteOffset":16560,
			"target":34962
		},
		{
			"buffer":0,
			"byteLength":16560,
			"byteOffset":27600,
			"target":34962
		},
		{
			"buffer":0,
			"byteLength":8544,
			"byteOffset":44160,
			"target":34963
		}
	],
	"samplers":[
		{
			"magFilter":9729,
			"minFilter":9987
		}
	],
	"buffers":[
		{
			"byteLength":52704,
			"uri":"door_frame.bin"
		}
	]
}
