{
	"asset":{
		"generator":"Khronos glTF Blender I/O v3.5.30",
		"version":"2.0"
	},
	"scene":0,
	"scenes":[
		{
			"name":"Scene",
			"nodes":[
				0
			]
		}
	],
	"nodes":[
		{
			"mesh":0,
			"name":"door"
		}
	],
	"materials":[
		{
			"doubleSided":true,
			"name":"door",
			"normalTexture":{
				"index":0
			},
			"occlusionTexture":{
				"index":1
			},
			"pbrMetallicRoughness":{
				"baseColorTexture":{
					"index":2
				},
				"metallicRoughnessTexture":{
					"index":1
				}
			}
		}
	],
	"meshes":[
		{
			"name":"Cube.016",
			"primitives":[
				{
					"attributes":{
						"POSITION":0,
						"TEXCOORD_0":1,
						"NORMAL":2
					},
					"indices":3,
					"material":0
				}
			]
		}
	],
	"textures":[
		{
			"sampler":0,
			"source":0
		},
		{
			"sampler":0,
			"source":1
		},
		{
			"sampler":0,
			"source":2
		}
	],
	"images":[
		{
			"mimeType":"image/png",
			"name":"door_Normal",
			"uri":"tex/door_Normal.png"
		},
		{
			"mimeType":"image/png",
			"name":"door_Mixed_AO-door_Roughness-door_Metallic",
			"uri":"tex/door_Mixed_AO-door_Roughness-door_Metallic.png"
		},
		{
			"mimeType":"image/png",
			"name":"door_Base_color",
			"uri":"tex/door_Base_color.png"
		}
	],
	"accessors":[
		{
			"bufferView":0,
			"componentType":5126,
			"count":2946,
			"max":[
				0.18422375619411469,
				1.9399181604385376,
				1.1134532690048218
			],
			"min":[
				-0.18422375619411469,
				-0.0009624757803976536,
				0.004048556089401245
			],
			"type":"VEC3"
		},
		{
			"bufferView":1,
			"componentType":5126,
			"count":2946,
			"type":"VEC2"
		},
		{
			"bufferView":2,
			"componentType":5126,
			"count":2946,
			"type":"VEC3"
		},
		{
			"bufferView":3,
			"componentType":5123,
			"count":9300,
			"type":"SCALAR"
		}
	],
	"bufferViews":[
		{
			"buffer":0,
			"byteLength":35352,
			"byteOffset":0,
			"target":34962
		},
		{
			"buffer":0,
			"byteLength":23568,
			"byteOffset":35352,
			"target":34962
		},
		{
			"buffer":0,
			"byteLength":35352,
			"byteOffset":58920,
			"target":34962
		},
		{
			"buffer":0,
			"byteLength":18600,
			"byteOffset":94272,
			"target":34963
		}
	],
	"samplers":[
		{
			"magFilter":9729,
			"minFilter":9987
		}
	],
	"buffers":[
		{
			"byteLength":112872,
			"uri":"door.bin"
		}
	]
}
