{
	"asset":{
		"generator":"Khronos glTF Blender I/O v3.5.30",
		"version":"2.0"
	},
	"scene":0,
	"scenes":[
		{
			"name":"Scene",
			"nodes":[
				0
			]
		}
	],
	"nodes":[
		{
			"mesh":0,
			"name":"fence_poles"
		}
	],
	"materials":[
		{
			"doubleSided":true,
			"name":"fence",
			"normalTexture":{
				"index":0
			},
			"occlusionTexture":{
				"index":1
			},
			"pbrMetallicRoughness":{
				"baseColorTexture":{
					"index":2
				},
				"metallicRoughnessTexture":{
					"index":1
				}
			}
		}
	],
	"meshes":[
		{
			"name":"Cylinder",
			"primitives":[
				{
					"attributes":{
						"POSITION":0,
						"TEXCOORD_0":1,
						"NORMAL":2
					},
					"indices":3,
					"material":0
				}
			]
		}
	],
	"textures":[
		{
			"sampler":0,
			"source":0
		},
		{
			"sampler":0,
			"source":1
		},
		{
			"sampler":0,
			"source":2
		}
	],
	"images":[
		{
			"mimeType":"image/png",
			"name":"fence_Normal",
			"uri":"tex/fence_Normal.png"
		},
		{
			"mimeType":"image/png",
			"name":"fence_Mixed_AO-fence_Roughness-fence_Metallic",
			"uri":"tex/fence_Mixed_AO-fence_Roughness-fence_Metallic.png"
		},
		{
			"mimeType":"image/png",
			"name":"fence_Base_color",
			"uri":"tex/fence_Base_color.png"
		}
	],
	"accessors":[
		{
			"bufferView":0,
			"componentType":5126,
			"count":270,
			"max":[
				0.03548640385270119,
				2,
				1.0354864597320557
			],
			"min":[
				-0.03548640385270119,
				0,
				-1.0354864597320557
			],
			"type":"VEC3"
		},
		{
			"bufferView":1,
			"componentType":5126,
			"count":270,
			"type":"VEC2"
		},
		{
			"bufferView":2,
			"componentType":5126,
			"count":270,
			"type":"VEC3"
		},
		{
			"bufferView":3,
			"componentType":5123,
			"count":1044,
			"type":"SCALAR"
		}
	],
	"bufferViews":[
		{
			"buffer":0,
			"byteLength":3240,
			"byteOffset":0,
			"target":34962
		},
		{
			"buffer":0,
			"byteLength":2160,
			"byteOffset":3240,
			"target":34962
		},
		{
			"buffer":0,
			"byteLength":3240,
			"byteOffset":5400,
			"target":34962
		},
		{
			"buffer":0,
			"byteLength":2088,
			"byteOffset":8640,
			"target":34963
		}
	],
	"samplers":[
		{
			"magFilter":9729,
			"minFilter":9987
		}
	],
	"buffers":[
		{
			"byteLength":10728,
			"uri":"fence_poles.bin"
		}
	]
}
