{
	"asset":{
		"generator":"Khronos glTF Blender I/O v3.5.30",
		"version":"2.0"
	},
	"scene":0,
	"scenes":[
		{
			"name":"Scene",
			"nodes":[
				0
			]
		}
	],
	"nodes":[
		{
			"mesh":0,
			"name":"bot_part_07",
			"translation":[
				6.371025085449219,
				0,
				-10.291841506958008
			]
		}
	],
	"materials":[
		{
			"doubleSided":true,
			"name":"bPart7",
			"normalTexture":{
				"index":0
			},
			"occlusionTexture":{
				"index":1
			},
			"pbrMetallicRoughness":{
				"baseColorTexture":{
					"index":2
				},
				"metallicRoughnessTexture":{
					"index":1
				}
			}
		}
	],
	"meshes":[
		{
			"name":"Cube.049",
			"primitives":[
				{
					"attributes":{
						"POSITION":0,
						"TEXCOORD_0":1,
						"NORMAL":2
					},
					"indices":3,
					"material":0
				}
			]
		}
	],
	"textures":[
		{
			"sampler":0,
			"source":0
		},
		{
			"sampler":0,
			"source":1
		},
		{
			"sampler":0,
			"source":2
		}
	],
	"images":[
		{
			"mimeType":"image/png",
			"name":"DefaultMaterial_Normal_OpenGL",
			"uri":"tex/DefaultMaterial_Normal_OpenGL.png"
		},
		{
			"mimeType":"image/png",
			"name":"DefaultMaterial_Mixed_AO.png-DefaultMaterial_Roughness.png-DefaultMaterial_Metallic.png",
			"uri":"tex/DefaultMaterial_Mixed_AO_png-DefaultMaterial_Roughness_png-DefaultMaterial_Metallic_png.png"
		},
		{
			"mimeType":"image/png",
			"name":"DefaultMaterial_Base_color",
			"uri":"tex/DefaultMaterial_Base_color.png"
		}
	],
	"accessors":[
		{
			"bufferView":0,
			"componentType":5126,
			"count":3856,
			"max":[
				0.39598095417022705,
				0.807842493057251,
				0.60498046875
			],
			"min":[
				-0.39598363637924194,
				0.003709539771080017,
				-0.4506804943084717
			],
			"type":"VEC3"
		},
		{
			"bufferView":1,
			"componentType":5126,
			"count":3856,
			"type":"VEC2"
		},
		{
			"bufferView":2,
			"componentType":5126,
			"count":3856,
			"type":"VEC3"
		},
		{
			"bufferView":3,
			"componentType":5123,
			"count":20304,
			"type":"SCALAR"
		}
	],
	"bufferViews":[
		{
			"buffer":0,
			"byteLength":46272,
			"byteOffset":0,
			"target":34962
		},
		{
			"buffer":0,
			"byteLength":30848,
			"byteOffset":46272,
			"target":34962
		},
		{
			"buffer":0,
			"byteLength":46272,
			"byteOffset":77120,
			"target":34962
		},
		{
			"buffer":0,
			"byteLength":40608,
			"byteOffset":123392,
			"target":34963
		}
	],
	"samplers":[
		{
			"magFilter":9729,
			"minFilter":9987
		}
	],
	"buffers":[
		{
			"byteLength":164000,
			"uri":"bot_part_07.bin"
		}
	]
}
