{
	"asset":{
		"generator":"Khronos glTF Blender I/O v3.5.30",
		"version":"2.0"
	},
	"scene":0,
	"scenes":[
		{
			"name":"Scene",
			"nodes":[
				0
			]
		}
	],
	"nodes":[
		{
			"mesh":0,
			"name":"platform_02",
			"translation":[
				0.9061754941940308,
				0,
				-8.164880752563477
			]
		}
	],
	"materials":[
		{
			"doubleSided":true,
			"name":"platform_02",
			"normalTexture":{
				"index":0
			},
			"occlusionTexture":{
				"index":1
			},
			"pbrMetallicRoughness":{
				"baseColorTexture":{
					"index":2
				},
				"metallicRoughnessTexture":{
					"index":1
				}
			}
		}
	],
	"meshes":[
		{
			"name":"Cube.027",
			"primitives":[
				{
					"attributes":{
						"POSITION":0,
						"TEXCOORD_0":1,
						"NORMAL":2
					},
					"indices":3,
					"material":0
				}
			]
		}
	],
	"textures":[
		{
			"sampler":0,
			"source":0
		},
		{
			"sampler":0,
			"source":1
		},
		{
			"sampler":0,
			"source":2
		}
	],
	"images":[
		{
			"mimeType":"image/png",
			"name":"DefaultMaterial_Normal",
			"uri":"tex/DefaultMaterial_Normal.png"
		},
		{
			"mimeType":"image/png",
			"name":"DefaultMaterial_Mixed_AO.png-DefaultMaterial_Roughness.png-DefaultMaterial_Metallic.png",
			"uri":"tex/DefaultMaterial_Mixed_AO_png-DefaultMaterial_Roughness_png-DefaultMaterial_Metallic_png.png"
		},
		{
			"mimeType":"image/png",
			"name":"DefaultMaterial_Base_color",
			"uri":"tex/DefaultMaterial_Base_color.png"
		}
	],
	"accessors":[
		{
			"bufferView":0,
			"componentType":5126,
			"count":2093,
			"max":[
				1.8370212316513062,
				1.001749038696289,
				1.8370212316513062
			],
			"min":[
				-1.8370212316513062,
				0,
				-1.8370212316513062
			],
			"type":"VEC3"
		},
		{
			"bufferView":1,
			"componentType":5126,
			"count":2093,
			"type":"VEC2"
		},
		{
			"bufferView":2,
			"componentType":5126,
			"count":2093,
			"type":"VEC3"
		},
		{
			"bufferView":3,
			"componentType":5123,
			"count":6072,
			"type":"SCALAR"
		}
	],
	"bufferViews":[
		{
			"buffer":0,
			"byteLength":25116,
			"byteOffset":0,
			"target":34962
		},
		{
			"buffer":0,
			"byteLength":16744,
			"byteOffset":25116,
			"target":34962
		},
		{
			"buffer":0,
			"byteLength":25116,
			"byteOffset":41860,
			"target":34962
		},
		{
			"buffer":0,
			"byteLength":12144,
			"byteOffset":66976,
			"target":34963
		}
	],
	"samplers":[
		{
			"magFilter":9729,
			"minFilter":9987
		}
	],
	"buffers":[
		{
			"byteLength":79120,
			"uri":"platform_02.bin"
		}
	]
}
