{
	"asset":{
		"generator":"Khronos glTF Blender I/O v3.5.30",
		"version":"2.0"
	},
	"scene":0,
	"scenes":[
		{
			"name":"Scene",
			"nodes":[
				0
			]
		}
	],
	"nodes":[
		{
			"mesh":0,
			"name":"ball03",
			"translation":[
				8.974003791809082,
				0,
				-4.662924289703369
			]
		}
	],
	"materials":[
		{
			"doubleSided":true,
			"emissiveFactor":[
				1,
				1,
				1
			],
			"emissiveTexture":{
				"index":0
			},
			"name":"ball_03",
			"normalTexture":{
				"index":1
			},
			"occlusionTexture":{
				"index":2
			},
			"pbrMetallicRoughness":{
				"baseColorTexture":{
					"index":3
				},
				"metallicRoughnessTexture":{
					"index":2
				}
			}
		}
	],
	"meshes":[
		{
			"name":"Sphere.005",
			"primitives":[
				{
					"attributes":{
						"POSITION":0,
						"TEXCOORD_0":1,
						"NORMAL":2
					},
					"indices":3,
					"material":0
				}
			]
		}
	],
	"textures":[
		{
			"sampler":0,
			"source":0
		},
		{
			"sampler":0,
			"source":1
		},
		{
			"sampler":0,
			"source":2
		},
		{
			"sampler":0,
			"source":3
		}
	],
	"images":[
		{
			"mimeType":"image/png",
			"name":"ball03_Emissive",
			"uri":"tex/ball03_Emissive.png"
		},
		{
			"mimeType":"image/png",
			"name":"ball03_Normal",
			"uri":"tex/ball03_Normal.png"
		},
		{
			"mimeType":"image/png",
			"name":"ball03_Mixed_AO-ball03_Roughness-ball03_Metallic",
			"uri":"tex/ball03_Mixed_AO-ball03_Roughness-ball03_Metallic.png"
		},
		{
			"mimeType":"image/png",
			"name":"ball03_Base_color",
			"uri":"tex/ball03_Base_color.png"
		}
	],
	"accessors":[
		{
			"bufferView":0,
			"componentType":5126,
			"count":790,
			"max":[
				0.482048362493515,
				0.49039262533187866,
				0.48204827308654785
			],
			"min":[
				-0.4820482134819031,
				-0.49039262533187866,
				-0.4820483326911926
			],
			"type":"VEC3"
		},
		{
			"bufferView":1,
			"componentType":5126,
			"count":790,
			"type":"VEC2"
		},
		{
			"bufferView":2,
			"componentType":5126,
			"count":790,
			"type":"VEC3"
		},
		{
			"bufferView":3,
			"componentType":5123,
			"count":3252,
			"type":"SCALAR"
		}
	],
	"bufferViews":[
		{
			"buffer":0,
			"byteLength":9480,
			"byteOffset":0,
			"target":34962
		},
		{
			"buffer":0,
			"byteLength":6320,
			"byteOffset":9480,
			"target":34962
		},
		{
			"buffer":0,
			"byteLength":9480,
			"byteOffset":15800,
			"target":34962
		},
		{
			"buffer":0,
			"byteLength":6504,
			"byteOffset":25280,
			"target":34963
		}
	],
	"samplers":[
		{
			"magFilter":9729,
			"minFilter":9987
		}
	],
	"buffers":[
		{
			"byteLength":31784,
			"uri":"ball_03.bin"
		}
	]
}
