{
	"asset":{
		"generator":"Khronos glTF Blender I/O v3.5.30",
		"version":"2.0"
	},
	"scene":0,
	"scenes":[
		{
			"name":"Scene",
			"nodes":[
				0
			]
		}
	],
	"nodes":[
		{
			"mesh":0,
			"name":"concrete_block",
			"translation":[
				6.995718479156494,
				0,
				1.4550094604492188
			]
		}
	],
	"materials":[
		{
			"doubleSided":true,
			"name":"block",
			"normalTexture":{
				"index":0
			},
			"occlusionTexture":{
				"index":1
			},
			"pbrMetallicRoughness":{
				"baseColorTexture":{
					"index":2
				},
				"metallicRoughnessTexture":{
					"index":1
				}
			}
		}
	],
	"meshes":[
		{
			"name":"Cube.036",
			"primitives":[
				{
					"attributes":{
						"POSITION":0,
						"TEXCOORD_0":1,
						"NORMAL":2
					},
					"indices":3,
					"material":0
				}
			]
		}
	],
	"textures":[
		{
			"sampler":0,
			"source":0
		},
		{
			"sampler":0,
			"source":1
		},
		{
			"sampler":0,
			"source":2
		}
	],
	"images":[
		{
			"mimeType":"image/png",
			"name":"block_Normal_OpenGL",
			"uri":"tex/block_Normal_OpenGL.png"
		},
		{
			"mimeType":"image/png",
			"name":"block_Mixed_AO-block_Roughness-block_Metallic",
			"uri":"tex/block_Mixed_AO-block_Roughness-block_Metallic.png"
		},
		{
			"mimeType":"image/png",
			"name":"block_Base_color",
			"uri":"tex/block_Base_color.png"
		}
	],
	"accessors":[
		{
			"bufferView":0,
			"componentType":5126,
			"count":80,
			"max":[
				0.2142859548330307,
				0.7280036807060242,
				0.5
			],
			"min":[
				-0.2142859548330307,
				0,
				-0.5
			],
			"type":"VEC3"
		},
		{
			"bufferView":1,
			"componentType":5126,
			"count":80,
			"type":"VEC2"
		},
		{
			"bufferView":2,
			"componentType":5126,
			"count":80,
			"type":"VEC3"
		},
		{
			"bufferView":3,
			"componentType":5123,
			"count":252,
			"type":"SCALAR"
		}
	],
	"bufferViews":[
		{
			"buffer":0,
			"byteLength":960,
			"byteOffset":0,
			"target":34962
		},
		{
			"buffer":0,
			"byteLength":640,
			"byteOffset":960,
			"target":34962
		},
		{
			"buffer":0,
			"byteLength":960,
			"byteOffset":1600,
			"target":34962
		},
		{
			"buffer":0,
			"byteLength":504,
			"byteOffset":2560,
			"target":34963
		}
	],
	"samplers":[
		{
			"magFilter":9729,
			"minFilter":9987
		}
	],
	"buffers":[
		{
			"byteLength":3064,
			"uri":"concrete_block.bin"
		}
	]
}
