{
	"asset":{
		"generator":"Khronos glTF Blender I/O v3.5.30",
		"version":"2.0"
	},
	"scene":0,
	"scenes":[
		{
			"name":"Scene",
			"nodes":[
				0
			]
		}
	],
	"nodes":[
		{
			"mesh":0,
			"name":"bot_part_05"
		}
	],
	"materials":[
		{
			"doubleSided":true,
			"name":"bPart5",
			"normalTexture":{
				"index":0
			},
			"occlusionTexture":{
				"index":1
			},
			"pbrMetallicRoughness":{
				"baseColorTexture":{
					"index":2
				},
				"metallicRoughnessTexture":{
					"index":1
				}
			}
		}
	],
	"meshes":[
		{
			"name":"Cube.051",
			"primitives":[
				{
					"attributes":{
						"POSITION":0,
						"TEXCOORD_0":1,
						"NORMAL":2
					},
					"indices":3,
					"material":0
				}
			]
		}
	],
	"textures":[
		{
			"sampler":0,
			"source":0
		},
		{
			"sampler":0,
			"source":1
		},
		{
			"sampler":0,
			"source":2
		}
	],
	"images":[
		{
			"mimeType":"image/png",
			"name":"DefaultMaterial_Normal_OpenGL",
			"uri":"tex/DefaultMaterial_Normal_OpenGL.png"
		},
		{
			"mimeType":"image/png",
			"name":"DefaultMaterial_Mixed_AO.png-DefaultMaterial_Roughness.png-DefaultMaterial_Metallic.png",
			"uri":"tex/DefaultMaterial_Mixed_AO_png-DefaultMaterial_Roughness_png-DefaultMaterial_Metallic_png.png"
		},
		{
			"mimeType":"image/png",
			"name":"DefaultMaterial_Base_color",
			"uri":"tex/DefaultMaterial_Base_color.png"
		}
	],
	"accessors":[
		{
			"bufferView":0,
			"componentType":5126,
			"count":637,
			"max":[
				0.09905961155891418,
				0.17643362283706665,
				0.6111599802970886
			],
			"min":[
				-0.07066033780574799,
				-0.00022239983081817627,
				-0.6850528120994568
			],
			"type":"VEC3"
		},
		{
			"bufferView":1,
			"componentType":5126,
			"count":637,
			"type":"VEC2"
		},
		{
			"bufferView":2,
			"componentType":5126,
			"count":637,
			"type":"VEC3"
		},
		{
			"bufferView":3,
			"componentType":5123,
			"count":3012,
			"type":"SCALAR"
		}
	],
	"bufferViews":[
		{
			"buffer":0,
			"byteLength":7644,
			"byteOffset":0,
			"target":34962
		},
		{
			"buffer":0,
			"byteLength":5096,
			"byteOffset":7644,
			"target":34962
		},
		{
			"buffer":0,
			"byteLength":7644,
			"byteOffset":12740,
			"target":34962
		},
		{
			"buffer":0,
			"byteLength":6024,
			"byteOffset":20384,
			"target":34963
		}
	],
	"samplers":[
		{
			"magFilter":9729,
			"minFilter":9987
		}
	],
	"buffers":[
		{
			"byteLength":26408,
			"uri":"bot_part_05.bin"
		}
	]
}
