{
	"asset":{
		"generator":"Khronos glTF Blender I/O v3.5.30",
		"version":"2.0"
	},
	"scene":0,
	"scenes":[
		{
			"name":"Scene",
			"nodes":[
				0
			]
		}
	],
	"nodes":[
		{
			"mesh":0,
			"name":"platform_modular_01",
			"translation":[
				1.7617255449295044,
				2.8345108032226562,
				-12.338499069213867
			]
		}
	],
	"materials":[
		{
			"doubleSided":true,
			"name":"platform_mod_01",
			"normalTexture":{
				"index":0
			},
			"occlusionTexture":{
				"index":1
			},
			"pbrMetallicRoughness":{
				"baseColorTexture":{
					"index":2
				},
				"metallicRoughnessTexture":{
					"index":1
				}
			}
		}
	],
	"meshes":[
		{
			"name":"Cube.042",
			"primitives":[
				{
					"attributes":{
						"POSITION":0,
						"TEXCOORD_0":1,
						"NORMAL":2
					},
					"indices":3,
					"material":0
				}
			]
		}
	],
	"textures":[
		{
			"sampler":0,
			"source":0
		},
		{
			"sampler":0,
			"source":1
		},
		{
			"sampler":0,
			"source":2
		}
	],
	"images":[
		{
			"mimeType":"image/png",
			"name":"DefaultMaterial_Normal_DirectX",
			"uri":"tex/DefaultMaterial_Normal_DirectX.png"
		},
		{
			"mimeType":"image/png",
			"name":"DefaultMaterial_Mixed_AO.png-DefaultMaterial_Roughness.png-DefaultMaterial_Metallic.png",
			"uri":"tex/DefaultMaterial_Mixed_AO_png-DefaultMaterial_Roughness_png-DefaultMaterial_Metallic_png.png"
		},
		{
			"mimeType":"image/png",
			"name":"DefaultMaterial_Base_color",
			"uri":"tex/DefaultMaterial_Base_color.png"
		}
	],
	"accessors":[
		{
			"bufferView":0,
			"componentType":5126,
			"count":184,
			"max":[
				1,
				0.19999995827674866,
				1
			],
			"min":[
				-1,
				-0.03999999910593033,
				-1
			],
			"type":"VEC3"
		},
		{
			"bufferView":1,
			"componentType":5126,
			"count":184,
			"type":"VEC2"
		},
		{
			"bufferView":2,
			"componentType":5126,
			"count":184,
			"type":"VEC3"
		},
		{
			"bufferView":3,
			"componentType":5123,
			"count":522,
			"type":"SCALAR"
		}
	],
	"bufferViews":[
		{
			"buffer":0,
			"byteLength":2208,
			"byteOffset":0,
			"target":34962
		},
		{
			"buffer":0,
			"byteLength":1472,
			"byteOffset":2208,
			"target":34962
		},
		{
			"buffer":0,
			"byteLength":2208,
			"byteOffset":3680,
			"target":34962
		},
		{
			"buffer":0,
			"byteLength":1044,
			"byteOffset":5888,
			"target":34963
		}
	],
	"samplers":[
		{
			"magFilter":9729,
			"minFilter":9987
		}
	],
	"buffers":[
		{
			"byteLength":6932,
			"uri":"platform_mod_01.bin"
		}
	]
}
