{
	"asset":{
		"generator":"Khronos glTF Blender I/O v3.5.30",
		"version":"2.0"
	},
	"scene":0,
	"scenes":[
		{
			"name":"Scene",
			"nodes":[
				0
			]
		}
	],
	"nodes":[
		{
			"mesh":0,
			"name":"small_box_02",
			"translation":[
				0.5523388385772705,
				0,
				1.0761157274246216
			]
		}
	],
	"materials":[
		{
			"doubleSided":true,
			"name":"smallBox_02",
			"normalTexture":{
				"index":0
			},
			"occlusionTexture":{
				"index":1
			},
			"pbrMetallicRoughness":{
				"baseColorTexture":{
					"index":2
				},
				"metallicRoughnessTexture":{
					"index":1
				}
			}
		}
	],
	"meshes":[
		{
			"name":"Cube.033",
			"primitives":[
				{
					"attributes":{
						"POSITION":0,
						"TEXCOORD_0":1,
						"NORMAL":2
					},
					"indices":3,
					"material":0
				}
			]
		}
	],
	"textures":[
		{
			"sampler":0,
			"source":0
		},
		{
			"sampler":0,
			"source":1
		},
		{
			"sampler":0,
			"source":2
		}
	],
	"images":[
		{
			"mimeType":"image/png",
			"name":"DefaultMaterial_Normal_DirectX",
			"uri":"tex/DefaultMaterial_Normal_DirectX.png"
		},
		{
			"mimeType":"image/png",
			"name":"DefaultMaterial_Mixed_AO.png-DefaultMaterial_Roughness.png-DefaultMaterial_Metallic.png",
			"uri":"tex/DefaultMaterial_Mixed_AO_png-DefaultMaterial_Roughness_png-DefaultMaterial_Metallic_png.png"
		},
		{
			"mimeType":"image/png",
			"name":"DefaultMaterial_Base_color",
			"uri":"tex/DefaultMaterial_Base_color.png"
		}
	],
	"accessors":[
		{
			"bufferView":0,
			"componentType":5126,
			"count":322,
			"max":[
				0.1610160768032074,
				0.3380369246006012,
				0.16100428998470306
			],
			"min":[
				-0.3536112904548645,
				-9.949924424290657e-05,
				-0.16023992002010345
			],
			"type":"VEC3"
		},
		{
			"bufferView":1,
			"componentType":5126,
			"count":322,
			"type":"VEC2"
		},
		{
			"bufferView":2,
			"componentType":5126,
			"count":322,
			"type":"VEC3"
		},
		{
			"bufferView":3,
			"componentType":5123,
			"count":1044,
			"type":"SCALAR"
		}
	],
	"bufferViews":[
		{
			"buffer":0,
			"byteLength":3864,
			"byteOffset":0,
			"target":34962
		},
		{
			"buffer":0,
			"byteLength":2576,
			"byteOffset":3864,
			"target":34962
		},
		{
			"buffer":0,
			"byteLength":3864,
			"byteOffset":6440,
			"target":34962
		},
		{
			"buffer":0,
			"byteLength":2088,
			"byteOffset":10304,
			"target":34963
		}
	],
	"samplers":[
		{
			"magFilter":9729,
			"minFilter":9987
		}
	],
	"buffers":[
		{
			"byteLength":12392,
			"uri":"small_box_02.bin"
		}
	]
}
