{
	"asset":{
		"generator":"Khronos glTF Blender I/O v3.5.30",
		"version":"2.0"
	},
	"scene":0,
	"scenes":[
		{
			"name":"Scene",
			"nodes":[
				0
			]
		}
	],
	"nodes":[
		{
			"mesh":0,
			"name":"LOD3spShape"
		}
	],
	"materials":[
		{
			"name":"blinn3-fx",
			"pbrMetallicRoughness":{
				"baseColorTexture":{
					"index":0
				},
				"metallicFactor":0
			}
		}
	],
	"meshes":[
		{
			"name":"LOD3spShape",
			"primitives":[
				{
					"attributes":{
						"POSITION":0,
						"TEXCOORD_0":1,
						"NORMAL":2
					},
					"indices":3,
					"material":0
				}
			]
		}
	],
	"textures":[
		{
			"sampler":0,
			"source":0
		}
	],
	"images":[
		{
			"bufferView":4,
			"mimeType":"image/png",
			"name":"DuckCM"
		}
	],
	"accessors":[
		{
			"bufferView":0,
			"componentType":5126,
			"count":2399,
			"max":[
				0.8172091245651245,
				0.9716862440109253,
				0.5834174156188965
			],
			"min":[
				-0.8537909388542175,
				-0.5838152170181274,
				-0.5804108381271362
			],
			"type":"VEC3"
		},
		{
			"bufferView":1,
			"componentType":5126,
			"count":2399,
			"type":"VEC2"
		},
		{
			"bufferView":2,
			"componentType":5126,
			"count":2399,
			"type":"VEC3"
		},
		{
			"bufferView":3,
			"componentType":5123,
			"count":12636,
			"type":"SCALAR"
		}
	],
	"bufferViews":[
		{
			"buffer":0,
			"byteLength":28788,
			"byteOffset":0,
			"target":34962
		},
		{
			"buffer":0,
			"byteLength":19192,
			"byteOffset":28788,
			"target":34962
		},
		{
			"buffer":0,
			"byteLength":28788,
			"byteOffset":47980,
			"target":34962
		},
		{
			"buffer":0,
			"byteLength":25272,
			"byteOffset":76768,
			"target":34963
		},
		{
			"buffer":0,
			"byteLength":16302,
			"byteOffset":102040
		}
	],
	"samplers":[
		{
			"magFilter":9729,
			"minFilter":9987
		}
	],
	"buffers":[
		{
			"byteLength":118344,
			"uri":"data:application/octet-stream;base64,"
		}
	]
}
