{
	"asset":{
		"generator":"Khronos glTF Blender I/O v3.5.30",
		"version":"2.0"
	},
	"scene":0,
	"scenes":[
		{
			"name":"Scene",
			"nodes":[
				0
			]
		}
	],
	"nodes":[
		{
			"mesh":0,
			"name":"pallet"
		}
	],
	"materials":[
		{
			"doubleSided":true,
			"name":"pallet",
			"normalTexture":{
				"index":0
			},
			"occlusionTexture":{
				"index":1
			},
			"pbrMetallicRoughness":{
				"baseColorTexture":{
					"index":2
				},
				"metallicRoughnessTexture":{
					"index":1
				}
			}
		}
	],
	"meshes":[
		{
			"name":"Cube.037",
			"primitives":[
				{
					"attributes":{
						"POSITION":0,
						"TEXCOORD_0":1,
						"NORMAL":2
					},
					"indices":3,
					"material":0
				}
			]
		}
	],
	"textures":[
		{
			"sampler":0,
			"source":0
		},
		{
			"sampler":0,
			"source":1
		},
		{
			"sampler":0,
			"source":2
		}
	],
	"images":[
		{
			"mimeType":"image/png",
			"name":"palett_Normal_OpenGL",
			"uri":"tex/palett_Normal_OpenGL.png"
		},
		{
			"mimeType":"image/png",
			"name":"palett_Mixed_AO-palett_Roughness-palett_Metallic",
			"uri":"tex/palett_Mixed_AO-palett_Roughness-palett_Metallic.png"
		},
		{
			"mimeType":"image/png",
			"name":"palett_Base_color",
			"uri":"tex/palett_Base_color.png"
		}
	],
	"accessors":[
		{
			"bufferView":0,
			"componentType":5126,
			"count":572,
			"max":[
				0.5,
				0.18286168575286865,
				0.6000000238418579
			],
			"min":[
				-0.5,
				0.0010968595743179321,
				-0.6000000834465027
			],
			"type":"VEC3"
		},
		{
			"bufferView":1,
			"componentType":5126,
			"count":572,
			"type":"VEC2"
		},
		{
			"bufferView":2,
			"componentType":5126,
			"count":572,
			"type":"VEC3"
		},
		{
			"bufferView":3,
			"componentType":5123,
			"count":1452,
			"type":"SCALAR"
		}
	],
	"bufferViews":[
		{
			"buffer":0,
			"byteLength":6864,
			"byteOffset":0,
			"target":34962
		},
		{
			"buffer":0,
			"byteLength":4576,
			"byteOffset":6864,
			"target":34962
		},
		{
			"buffer":0,
			"byteLength":6864,
			"byteOffset":11440,
			"target":34962
		},
		{
			"buffer":0,
			"byteLength":2904,
			"byteOffset":18304,
			"target":34963
		}
	],
	"samplers":[
		{
			"magFilter":9729,
			"minFilter":9987
		}
	],
	"buffers":[
		{
			"byteLength":21208,
			"uri":"pallet.bin"
		}
	]
}
