{
    "asset" : {
        "generator" : "Khronos glTF Blender I/O v3.3.32",
        "version" : "2.0"
    },
    "scene" : 0,
    "scenes" : [
        {
            "name" : "Scene",
            "nodes" : [
                0
            ]
        }
    ],
    "nodes" : [
        {
            "mesh" : 0,
            "name" : "knife",
            "rotation" : [
                1,
                0,
                0,
                0
            ]
        }
    ],
    "materials" : [
        {
            "doubleSided" : true,
            "name" : "knife",
            "normalTexture" : {
                "index" : 0,
                "scale" : 0.10000000149011612
            },
            "occlusionTexture" : {
                "index" : 1
            },
            "pbrMetallicRoughness" : {
                "baseColorTexture" : {
                    "index" : 2
                },
                "metallicRoughnessTexture" : {
                    "index" : 1
                }
            }
        }
    ],
    "meshes" : [
        {
            "name" : "Cube.001",
            "primitives" : [
                {
                    "attributes" : {
                        "POSITION" : 0,
                        "NORMAL" : 1,
                        "TEXCOORD_0" : 2
                    },
                    "indices" : 3,
                    "material" : 0
                }
            ]
        }
    ],
    "textures" : [
        {
            "sampler" : 0,
            "source" : 0
        },
        {
            "sampler" : 0,
            "source" : 1
        },
        {
            "sampler" : 0,
            "source" : 2
        }
    ],
    "images" : [
        {
            "mimeType" : "image/png",
            "name" : "DefaultMaterial_Normal",
            "uri" : "tex/DefaultMaterial_Normal.png"
        },
        {
            "mimeType" : "image/png",
            "name" : "DefaultMaterial_Mixed_AO-DefaultMaterial_Roughness-DefaultMaterial_Metallic",
            "uri" : "tex/DefaultMaterial_Mixed_AO-DefaultMaterial_Roughness-DefaultMaterial_Metallic.png"
        },
        {
            "mimeType" : "image/png",
            "name" : "DefaultMaterial_Base_color",
            "uri" : "tex/DefaultMaterial_Base_color.png"
        }
    ],
    "accessors" : [
        {
            "bufferView" : 0,
            "componentType" : 5126,
            "count" : 904,
            "max" : [
                0.029224038124084473,
                0.020102620124816895,
                0.1273772120475769
            ],
            "min" : [
                -0.03997838497161865,
                -0.017873823642730713,
                -0.0659981295466423
            ],
            "type" : "VEC3"
        },
        {
            "bufferView" : 1,
            "componentType" : 5126,
            "count" : 904,
            "type" : "VEC3"
        },
        {
            "bufferView" : 2,
            "componentType" : 5126,
            "count" : 904,
            "type" : "VEC2"
        },
        {
            "bufferView" : 3,
            "componentType" : 5123,
            "count" : 1332,
            "type" : "SCALAR"
        }
    ],
    "bufferViews" : [
        {
            "buffer" : 0,
            "byteLength" : 10848,
            "byteOffset" : 0,
            "target" : 34962
        },
        {
            "buffer" : 0,
            "byteLength" : 10848,
            "byteOffset" : 10848,
            "target" : 34962
        },
        {
            "buffer" : 0,
            "byteLength" : 7232,
            "byteOffset" : 21696,
            "target" : 34962
        },
        {
            "buffer" : 0,
            "byteLength" : 2664,
            "byteOffset" : 28928,
            "target" : 34963
        }
    ],
    "samplers" : [
        {
            "magFilter" : 9729,
            "minFilter" : 9987
        }
    ],
    "buffers" : [
        {
            "byteLength" : 31592,
            "uri" : "knife.bin"
        }
    ]
}
