{
	"asset":{
		"generator":"Khronos glTF Blender I/O v3.5.30",
		"version":"2.0"
	},
	"scene":0,
	"scenes":[
		{
			"name":"Scene",
			"nodes":[
				0
			]
		}
	],
	"nodes":[
		{
			"mesh":0,
			"name":"bot_part_06"
		}
	],
	"materials":[
		{
			"doubleSided":true,
			"name":"bPart6",
			"normalTexture":{
				"index":0
			},
			"occlusionTexture":{
				"index":1
			},
			"pbrMetallicRoughness":{
				"baseColorTexture":{
					"index":2
				},
				"metallicRoughnessTexture":{
					"index":1
				}
			}
		}
	],
	"meshes":[
		{
			"name":"Cube.050",
			"primitives":[
				{
					"attributes":{
						"POSITION":0,
						"TEXCOORD_0":1,
						"NORMAL":2
					},
					"indices":3,
					"material":0
				}
			]
		}
	],
	"textures":[
		{
			"sampler":0,
			"source":0
		},
		{
			"sampler":0,
			"source":1
		},
		{
			"sampler":0,
			"source":2
		}
	],
	"images":[
		{
			"mimeType":"image/png",
			"name":"DefaultMaterial_Normal_OpenGL",
			"uri":"tex/DefaultMaterial_Normal_OpenGL.png"
		},
		{
			"mimeType":"image/png",
			"name":"DefaultMaterial_Mixed_AO.png-DefaultMaterial_Roughness.png-DefaultMaterial_Metallic.png",
			"uri":"tex/DefaultMaterial_Mixed_AO_png-DefaultMaterial_Roughness_png-DefaultMaterial_Metallic_png.png"
		},
		{
			"mimeType":"image/png",
			"name":"DefaultMaterial_Base_color",
			"uri":"tex/DefaultMaterial_Base_color.png"
		}
	],
	"accessors":[
		{
			"bufferView":0,
			"componentType":5126,
			"count":1582,
			"max":[
				0.5979980826377869,
				0.292985200881958,
				1.0146921873092651
			],
			"min":[
				-0.530656635761261,
				0.0018074512481689453,
				-1.505783200263977
			],
			"type":"VEC3"
		},
		{
			"bufferView":1,
			"componentType":5126,
			"count":1582,
			"type":"VEC2"
		},
		{
			"bufferView":2,
			"componentType":5126,
			"count":1582,
			"type":"VEC3"
		},
		{
			"bufferView":3,
			"componentType":5123,
			"count":7770,
			"type":"SCALAR"
		}
	],
	"bufferViews":[
		{
			"buffer":0,
			"byteLength":18984,
			"byteOffset":0,
			"target":34962
		},
		{
			"buffer":0,
			"byteLength":12656,
			"byteOffset":18984,
			"target":34962
		},
		{
			"buffer":0,
			"byteLength":18984,
			"byteOffset":31640,
			"target":34962
		},
		{
			"buffer":0,
			"byteLength":15540,
			"byteOffset":50624,
			"target":34963
		}
	],
	"samplers":[
		{
			"magFilter":9729,
			"minFilter":9987
		}
	],
	"buffers":[
		{
			"byteLength":66164,
			"uri":"bot_part_06.bin"
		}
	]
}
