{
	"asset":{
		"generator":"Khronos glTF Blender I/O v3.5.30",
		"version":"2.0"
	},
	"scene":0,
	"scenes":[
		{
			"name":"Scene",
			"nodes":[
				0
			]
		}
	],
	"nodes":[
		{
			"mesh":0,
			"name":"blackbox",
			"translation":[
				1.2373926639556885,
				0,
				-3.3030014038085938
			]
		}
	],
	"materials":[
		{
			"doubleSided":true,
			"name":"blackbox_02",
			"normalTexture":{
				"index":0
			},
			"occlusionTexture":{
				"index":1
			},
			"pbrMetallicRoughness":{
				"baseColorTexture":{
					"index":2
				},
				"metallicRoughnessTexture":{
					"index":1
				}
			}
		}
	],
	"meshes":[
		{
			"name":"Cube.028",
			"primitives":[
				{
					"attributes":{
						"POSITION":0,
						"TEXCOORD_0":1,
						"NORMAL":2
					},
					"indices":3,
					"material":0
				}
			]
		}
	],
	"textures":[
		{
			"sampler":0,
			"source":0
		},
		{
			"sampler":0,
			"source":1
		},
		{
			"sampler":0,
			"source":2
		}
	],
	"images":[
		{
			"mimeType":"image/png",
			"name":"01_Normal_DirectX",
			"uri":"tex/01_Normal_DirectX.png"
		},
		{
			"mimeType":"image/png",
			"name":"01_Mixed_AO-01_Roughness-01_Metallic",
			"uri":"tex/01_Mixed_AO-01_Roughness-01_Metallic.png"
		},
		{
			"mimeType":"image/png",
			"name":"01_Base_color",
			"uri":"tex/01_Base_color.png"
		}
	],
	"accessors":[
		{
			"bufferView":0,
			"componentType":5126,
			"count":472,
			"max":[
				0.5559800267219543,
				1.0400679111480713,
				0.8661816120147705
			],
			"min":[
				-0.5493133664131165,
				0,
				-0.8661816120147705
			],
			"type":"VEC3"
		},
		{
			"bufferView":1,
			"componentType":5126,
			"count":472,
			"type":"VEC2"
		},
		{
			"bufferView":2,
			"componentType":5126,
			"count":472,
			"type":"VEC3"
		},
		{
			"bufferView":3,
			"componentType":5123,
			"count":1572,
			"type":"SCALAR"
		}
	],
	"bufferViews":[
		{
			"buffer":0,
			"byteLength":5664,
			"byteOffset":0,
			"target":34962
		},
		{
			"buffer":0,
			"byteLength":3776,
			"byteOffset":5664,
			"target":34962
		},
		{
			"buffer":0,
			"byteLength":5664,
			"byteOffset":9440,
			"target":34962
		},
		{
			"buffer":0,
			"byteLength":3144,
			"byteOffset":15104,
			"target":34963
		}
	],
	"samplers":[
		{
			"magFilter":9729,
			"minFilter":9987
		}
	],
	"buffers":[
		{
			"byteLength":18248,
			"uri":"blackbox_02.bin"
		}
	]
}
