{
	"asset":{
		"generator":"Khronos glTF Blender I/O v3.5.30",
		"version":"2.0"
	},
	"scene":0,
	"scenes":[
		{
			"name":"Scene",
			"nodes":[
				0
			]
		}
	],
	"nodes":[
		{
			"mesh":0,
			"name":"weapon",
			"rotation":[
				-0.05284269154071808,
				-0.3252212703227997,
				-0.3037205934524536,
				0.8939757347106934
			],
			"translation":[
				-0.08437693119049072,
				1.0744493007659912,
				0.19886942207813263
			]
		}
	],
	"materials":[
		{
			"doubleSided":true,
			"name":"gun02",
			"normalTexture":{
				"index":0,
				"scale":0.10000000149011612
			},
			"pbrMetallicRoughness":{
				"baseColorTexture":{
					"index":1
				},
				"metallicRoughnessTexture":{
					"index":2
				}
			}
		}
	],
	"meshes":[
		{
			"name":"Cube.002",
			"primitives":[
				{
					"attributes":{
						"POSITION":0,
						"TEXCOORD_0":1,
						"NORMAL":2
					},
					"indices":3,
					"material":0
				}
			]
		}
	],
	"textures":[
		{
			"sampler":0,
			"source":0
		},
		{
			"sampler":0,
			"source":1
		},
		{
			"sampler":0,
			"source":2
		}
	],
	"images":[
		{
			"mimeType":"image/png",
			"name":"gun02_Normal",
			"uri":"tex/gun02_Normal.png"
		},
		{
			"mimeType":"image/png",
			"name":"gun02_Base_color",
			"uri":"tex/gun02_Base_color.png"
		},
		{
			"mimeType":"image/png",
			"name":"gun02_Metallic-gun02_Roughness",
			"uri":"tex/gun02_Metallic-gun02_Roughness.png"
		}
	],
	"accessors":[
		{
			"bufferView":0,
			"componentType":5126,
			"count":5325,
			"max":[
				0.44477006793022156,
				0.1676679253578186,
				0.03647121042013168
			],
			"min":[
				-0.44507184624671936,
				-0.14859820902347565,
				-0.03647121042013168
			],
			"type":"VEC3"
		},
		{
			"bufferView":1,
			"componentType":5126,
			"count":5325,
			"type":"VEC2"
		},
		{
			"bufferView":2,
			"componentType":5126,
			"count":5325,
			"type":"VEC3"
		},
		{
			"bufferView":3,
			"componentType":5123,
			"count":9018,
			"type":"SCALAR"
		}
	],
	"bufferViews":[
		{
			"buffer":0,
			"byteLength":63900,
			"byteOffset":0,
			"target":34962
		},
		{
			"buffer":0,
			"byteLength":42600,
			"byteOffset":63900,
			"target":34962
		},
		{
			"buffer":0,
			"byteLength":63900,
			"byteOffset":106500,
			"target":34962
		},
		{
			"buffer":0,
			"byteLength":18036,
			"byteOffset":170400,
			"target":34963
		}
	],
	"samplers":[
		{
			"magFilter":9729,
			"minFilter":9987
		}
	],
	"buffers":[
		{
			"byteLength":188436,
			"uri":"weapon.bin"
		}
	]
}
