{
	"asset":{
		"generator":"Khronos glTF Blender I/O v3.5.30",
		"version":"2.0"
	},
	"scene":0,
	"scenes":[
		{
			"name":"Scene",
			"nodes":[
				0
			]
		}
	],
	"nodes":[
		{
			"mesh":0,
			"name":"bot_part_08",
			"translation":[
				4.9299211502075195,
				0,
				-10.637774467468262
			]
		}
	],
	"materials":[
		{
			"doubleSided":true,
			"name":"bPart8",
			"normalTexture":{
				"index":0
			},
			"occlusionTexture":{
				"index":1
			},
			"pbrMetallicRoughness":{
				"baseColorTexture":{
					"index":2
				},
				"metallicRoughnessTexture":{
					"index":1
				}
			}
		}
	],
	"meshes":[
		{
			"name":"Cube.048",
			"primitives":[
				{
					"attributes":{
						"POSITION":0,
						"TEXCOORD_0":1,
						"NORMAL":2
					},
					"indices":3,
					"material":0
				}
			]
		}
	],
	"textures":[
		{
			"sampler":0,
			"source":0
		},
		{
			"sampler":0,
			"source":1
		},
		{
			"sampler":0,
			"source":2
		}
	],
	"images":[
		{
			"mimeType":"image/png",
			"name":"DefaultMaterial_Normal_OpenGL",
			"uri":"tex/DefaultMaterial_Normal_OpenGL.png"
		},
		{
			"mimeType":"image/png",
			"name":"DefaultMaterial_Mixed_AO.png-DefaultMaterial_Roughness.png-DefaultMaterial_Metallic.png",
			"uri":"tex/DefaultMaterial_Mixed_AO_png-DefaultMaterial_Roughness_png-DefaultMaterial_Metallic_png.png"
		},
		{
			"mimeType":"image/png",
			"name":"DefaultMaterial_Base_color",
			"uri":"tex/DefaultMaterial_Base_color.png"
		}
	],
	"accessors":[
		{
			"bufferView":0,
			"componentType":5126,
			"count":12178,
			"max":[
				0.844096839427948,
				1.5668134689331055,
				0.9455118775367737
			],
			"min":[
				-0.7484549880027771,
				0.00901949405670166,
				-0.94220370054245
			],
			"type":"VEC3"
		},
		{
			"bufferView":1,
			"componentType":5126,
			"count":12178,
			"type":"VEC2"
		},
		{
			"bufferView":2,
			"componentType":5126,
			"count":12178,
			"type":"VEC3"
		},
		{
			"bufferView":3,
			"componentType":5123,
			"count":65856,
			"type":"SCALAR"
		}
	],
	"bufferViews":[
		{
			"buffer":0,
			"byteLength":146136,
			"byteOffset":0,
			"target":34962
		},
		{
			"buffer":0,
			"byteLength":97424,
			"byteOffset":146136,
			"target":34962
		},
		{
			"buffer":0,
			"byteLength":146136,
			"byteOffset":243560,
			"target":34962
		},
		{
			"buffer":0,
			"byteLength":131712,
			"byteOffset":389696,
			"target":34963
		}
	],
	"samplers":[
		{
			"magFilter":9729,
			"minFilter":9987
		}
	],
	"buffers":[
		{
			"byteLength":521408,
			"uri":"bot_part_08.bin"
		}
	]
}
