{
	"asset":{
		"generator":"Khronos glTF Blender I/O v3.5.30",
		"version":"2.0"
	},
	"scene":0,
	"scenes":[
		{
			"name":"Scene",
			"nodes":[
				0
			]
		}
	],
	"nodes":[
		{
			"mesh":0,
			"name":"lamp_02_stand",
			"translation":[
				0,
				0.00423075258731842,
				0
			]
		}
	],
	"materials":[
		{
			"doubleSided":true,
			"name":"reflector_02_stand",
			"normalTexture":{
				"index":0
			},
			"occlusionTexture":{
				"index":1
			},
			"pbrMetallicRoughness":{
				"baseColorTexture":{
					"index":2
				},
				"metallicRoughnessTexture":{
					"index":1
				}
			}
		}
	],
	"meshes":[
		{
			"name":"Cube.025",
			"primitives":[
				{
					"attributes":{
						"POSITION":0,
						"TEXCOORD_0":1,
						"NORMAL":2
					},
					"indices":3,
					"material":0
				}
			]
		}
	],
	"textures":[
		{
			"sampler":0,
			"source":0
		},
		{
			"sampler":0,
			"source":1
		},
		{
			"sampler":0,
			"source":2
		}
	],
	"images":[
		{
			"mimeType":"image/png",
			"name":"stand_Normal",
			"uri":"tex/stand_Normal.png"
		},
		{
			"mimeType":"image/png",
			"name":"stand_Mixed_AO-stand_Roughness-stand_Metallic",
			"uri":"tex/stand_Mixed_AO-stand_Roughness-stand_Metallic.png"
		},
		{
			"mimeType":"image/png",
			"name":"stand_Base_color",
			"uri":"tex/stand_Base_color.png"
		}
	],
	"accessors":[
		{
			"bufferView":0,
			"componentType":5126,
			"count":412,
			"max":[
				0.06569995731115341,
				0.3396749794483185,
				0.16506536304950714
			],
			"min":[
				-0.1162966936826706,
				0,
				-0.16506536304950714
			],
			"type":"VEC3"
		},
		{
			"bufferView":1,
			"componentType":5126,
			"count":412,
			"type":"VEC2"
		},
		{
			"bufferView":2,
			"componentType":5126,
			"count":412,
			"type":"VEC3"
		},
		{
			"bufferView":3,
			"componentType":5123,
			"count":1872,
			"type":"SCALAR"
		}
	],
	"bufferViews":[
		{
			"buffer":0,
			"byteLength":4944,
			"byteOffset":0,
			"target":34962
		},
		{
			"buffer":0,
			"byteLength":3296,
			"byteOffset":4944,
			"target":34962
		},
		{
			"buffer":0,
			"byteLength":4944,
			"byteOffset":8240,
			"target":34962
		},
		{
			"buffer":0,
			"byteLength":3744,
			"byteOffset":13184,
			"target":34963
		}
	],
	"samplers":[
		{
			"magFilter":9729,
			"minFilter":9987
		}
	],
	"buffers":[
		{
			"byteLength":16928,
			"uri":"lamp_02_stand.bin"
		}
	]
}
