{
	"asset":{
		"generator":"Khronos glTF Blender I/O v3.5.30",
		"version":"2.0"
	},
	"scene":0,
	"scenes":[
		{
			"name":"Scene",
			"nodes":[
				0
			]
		}
	],
	"nodes":[
		{
			"mesh":0,
			"name":"woodenBox1"
		}
	],
	"materials":[
		{
			"doubleSided":true,
			"name":"woodenBox",
			"normalTexture":{
				"index":0,
				"scale":2.5
			},
			"occlusionTexture":{
				"index":1
			},
			"pbrMetallicRoughness":{
				"baseColorTexture":{
					"index":2
				},
				"metallicRoughnessTexture":{
					"index":1
				}
			}
		}
	],
	"meshes":[
		{
			"name":"Mesh.006",
			"primitives":[
				{
					"attributes":{
						"POSITION":0,
						"TEXCOORD_0":1,
						"NORMAL":2
					},
					"indices":3,
					"material":0
				}
			]
		}
	],
	"textures":[
		{
			"sampler":0,
			"source":0
		},
		{
			"sampler":0,
			"source":1
		},
		{
			"sampler":0,
			"source":2
		}
	],
	"images":[
		{
			"mimeType":"image/png",
			"name":"woodenBox_Normal",
			"uri":"tex/woodenBox_Normal.png"
		},
		{
			"mimeType":"image/png",
			"name":"woodenBox_Mixed_AO-woodenBox_Roughness-woodenBox_Metallic",
			"uri":"tex/woodenBox_Mixed_AO-woodenBox_Roughness-woodenBox_Metallic.png"
		},
		{
			"mimeType":"image/png",
			"name":"woodenBox_Base_color-woodenBox_Opacity",
			"uri":"tex/woodenBox_Base_color-woodenBox_Opacity.png"
		}
	],
	"accessors":[
		{
			"bufferView":0,
			"componentType":5126,
			"count":2816,
			"max":[
				0.5300005674362183,
				0.5003844499588013,
				0.5292868614196777
			],
			"min":[
				-0.5299993753433228,
				-0.5296154618263245,
				-0.5307130813598633
			],
			"type":"VEC3"
		},
		{
			"bufferView":1,
			"componentType":5126,
			"count":2816,
			"type":"VEC2"
		},
		{
			"bufferView":2,
			"componentType":5126,
			"count":2816,
			"type":"VEC3"
		},
		{
			"bufferView":3,
			"componentType":5123,
			"count":11268,
			"type":"SCALAR"
		}
	],
	"bufferViews":[
		{
			"buffer":0,
			"byteLength":33792,
			"byteOffset":0,
			"target":34962
		},
		{
			"buffer":0,
			"byteLength":22528,
			"byteOffset":33792,
			"target":34962
		},
		{
			"buffer":0,
			"byteLength":33792,
			"byteOffset":56320,
			"target":34962
		},
		{
			"buffer":0,
			"byteLength":22536,
			"byteOffset":90112,
			"target":34963
		}
	],
	"samplers":[
		{
			"magFilter":9729,
			"minFilter":9987
		}
	],
	"buffers":[
		{
			"byteLength":112648,
			"uri":"woodenBox.bin"
		}
	]
}
