{
    "asset" : {
        "generator" : "Khronos glTF Blender I/O v3.2.40",
        "version" : "2.0"
    },
    "scene" : 0,
    "scenes" : [
        {
            "name" : "Scene",
            "nodes" : [
                0
            ]
        }
    ],
    "nodes" : [
        {
            "mesh" : 0,
            "name" : "electric_box_2",
            "translation" : [
                -2.0288267135620117,
                0,
                -0.8698133230209351
            ]
        }
    ],
    "materials" : [
        {
            "doubleSided" : true,
            "name" : "electric_box_2",
            "normalTexture" : {
                "index" : 0
            },
            "occlusionTexture" : {
                "index" : 1
            },
            "pbrMetallicRoughness" : {
                "baseColorTexture" : {
                    "index" : 2
                },
                "metallicRoughnessTexture" : {
                    "index" : 1
                }
            }
        }
    ],
    "meshes" : [
        {
            "name" : "Mesh.007",
            "primitives" : [
                {
                    "attributes" : {
                        "POSITION" : 0,
                        "NORMAL" : 1,
                        "TEXCOORD_0" : 2
                    },
                    "indices" : 3,
                    "material" : 0
                }
            ]
        }
    ],
    "textures" : [
        {
            "sampler" : 0,
            "source" : 0
        },
        {
            "sampler" : 0,
            "source" : 1
        },
        {
            "sampler" : 0,
            "source" : 2
        }
    ],
    "images" : [
        {
            "mimeType" : "image/png",
            "name" : "electricBox_Normal",
            "uri" : "tex/electricBox_Normal.png"
        },
        {
            "mimeType" : "image/png",
            "name" : "electricBox_Mixed_AO.png-electricBox_Roughness.png-electricBox_Metallic.png",
            "uri" : "tex/electricBox_Mixed_AO_png-electricBox_Roughness_png-electricBox_Metallic_png.png"
        },
        {
            "mimeType" : "image/png",
            "name" : "electricBox_Base_color.png-electricBox_Opacity.png",
            "uri" : "tex/electricBox_Base_color_png-electricBox_Opacity_png.png"
        }
    ],
    "accessors" : [
        {
            "bufferView" : 0,
            "componentType" : 5126,
            "count" : 2992,
            "max" : [
                0.39750003814697266,
                0.32249999046325684,
                0.54749995470047
            ],
            "min" : [
                -0.3825000524520874,
                -0.04681035131216049,
                -0.8199447393417358
            ],
            "type" : "VEC3"
        },
        {
            "bufferView" : 1,
            "componentType" : 5126,
            "count" : 2992,
            "type" : "VEC3"
        },
        {
            "bufferView" : 2,
            "componentType" : 5126,
            "count" : 2992,
            "type" : "VEC2"
        },
        {
            "bufferView" : 3,
            "componentType" : 5123,
            "count" : 11622,
            "type" : "SCALAR"
        }
    ],
    "bufferViews" : [
        {
            "buffer" : 0,
            "byteLength" : 35904,
            "byteOffset" : 0
        },
        {
            "buffer" : 0,
            "byteLength" : 35904,
            "byteOffset" : 35904
        },
        {
            "buffer" : 0,
            "byteLength" : 23936,
            "byteOffset" : 71808
        },
        {
            "buffer" : 0,
            "byteLength" : 23244,
            "byteOffset" : 95744
        }
    ],
    "samplers" : [
        {
            "magFilter" : 9729,
            "minFilter" : 9987
        }
    ],
    "buffers" : [
        {
            "byteLength" : 118988,
            "uri" : "electric_box_2.bin"
        }
    ]
}
