{
	"asset":{
		"generator":"Khronos glTF Blender I/O v3.5.30",
		"version":"2.0"
	},
	"scene":0,
	"scenes":[
		{
			"name":"Scene",
			"nodes":[
				0
			]
		}
	],
	"nodes":[
		{
			"mesh":0,
			"name":"bot_part_02"
		}
	],
	"materials":[
		{
			"doubleSided":true,
			"name":"bPart2",
			"normalTexture":{
				"index":0
			},
			"occlusionTexture":{
				"index":1
			},
			"pbrMetallicRoughness":{
				"baseColorTexture":{
					"index":2
				},
				"metallicRoughnessTexture":{
					"index":1
				}
			}
		}
	],
	"meshes":[
		{
			"name":"Cube.043",
			"primitives":[
				{
					"attributes":{
						"POSITION":0,
						"TEXCOORD_0":1,
						"NORMAL":2
					},
					"indices":3,
					"material":0
				}
			]
		}
	],
	"textures":[
		{
			"sampler":0,
			"source":0
		},
		{
			"sampler":0,
			"source":1
		},
		{
			"sampler":0,
			"source":2
		}
	],
	"images":[
		{
			"mimeType":"image/png",
			"name":"AI_bot_Normal_OpenGL",
			"uri":"tex/AI_bot_Normal_OpenGL.png"
		},
		{
			"mimeType":"image/png",
			"name":"AI_bot_Mixed_AO.png-AI_bot_Roughness.png-AI_bot_Metallic.png",
			"uri":"tex/AI_bot_Mixed_AO_png-AI_bot_Roughness_png-AI_bot_Metallic_png.png"
		},
		{
			"mimeType":"image/png",
			"name":"AI_bot_Base_color",
			"uri":"tex/AI_bot_Base_color.png"
		}
	],
	"accessors":[
		{
			"bufferView":0,
			"componentType":5126,
			"count":1149,
			"max":[
				0.1148461177945137,
				0.2670377790927887,
				0.6106334328651428
			],
			"min":[
				-0.6106703281402588,
				-0.0011360348435118794,
				-1.0265429019927979
			],
			"type":"VEC3"
		},
		{
			"bufferView":1,
			"componentType":5126,
			"count":1149,
			"type":"VEC2"
		},
		{
			"bufferView":2,
			"componentType":5126,
			"count":1149,
			"type":"VEC3"
		},
		{
			"bufferView":3,
			"componentType":5123,
			"count":3960,
			"type":"SCALAR"
		}
	],
	"bufferViews":[
		{
			"buffer":0,
			"byteLength":13788,
			"byteOffset":0,
			"target":34962
		},
		{
			"buffer":0,
			"byteLength":9192,
			"byteOffset":13788,
			"target":34962
		},
		{
			"buffer":0,
			"byteLength":13788,
			"byteOffset":22980,
			"target":34962
		},
		{
			"buffer":0,
			"byteLength":7920,
			"byteOffset":36768,
			"target":34963
		}
	],
	"samplers":[
		{
			"magFilter":9729,
			"minFilter":9987
		}
	],
	"buffers":[
		{
			"byteLength":44688,
			"uri":"bot_part_02.bin"
		}
	]
}
