{
	"asset":{
		"generator":"Khronos glTF Blender I/O v3.5.30",
		"version":"2.0"
	},
	"scene":0,
	"scenes":[
		{
			"name":"Scene",
			"nodes":[
				0
			]
		}
	],
	"nodes":[
		{
			"mesh":0,
			"name":"pipe_02",
			"translation":[
				-1.4308427572250366,
				0,
				-2.9476399421691895
			]
		}
	],
	"materials":[
		{
			"doubleSided":true,
			"name":"pipe02",
			"normalTexture":{
				"index":0
			},
			"occlusionTexture":{
				"index":1
			},
			"pbrMetallicRoughness":{
				"baseColorTexture":{
					"index":2
				},
				"metallicRoughnessTexture":{
					"index":1
				}
			}
		}
	],
	"meshes":[
		{
			"name":"Cylinder.007",
			"primitives":[
				{
					"attributes":{
						"POSITION":0,
						"TEXCOORD_0":1,
						"NORMAL":2
					},
					"indices":3,
					"material":0
				}
			]
		}
	],
	"textures":[
		{
			"sampler":0,
			"source":0
		},
		{
			"sampler":0,
			"source":1
		},
		{
			"sampler":0,
			"source":2
		}
	],
	"images":[
		{
			"mimeType":"image/png",
			"name":"pipe02_Normal",
			"uri":"tex/pipe02_Normal.png"
		},
		{
			"mimeType":"image/png",
			"name":"pipe02_Mixed_AO-pipe02_Roughness-pipe02_Metallic",
			"uri":"tex/pipe02_Mixed_AO-pipe02_Roughness-pipe02_Metallic.png"
		},
		{
			"mimeType":"image/png",
			"name":"pipe02_Base_color",
			"uri":"tex/pipe02_Base_color.png"
		}
	],
	"accessors":[
		{
			"bufferView":0,
			"componentType":5126,
			"count":1107,
			"max":[
				0.1576513648033142,
				2.311478853225708,
				0.1325092762708664
			],
			"min":[
				-0.3941800892353058,
				-0.03759503364562988,
				-0.1325092762708664
			],
			"type":"VEC3"
		},
		{
			"bufferView":1,
			"componentType":5126,
			"count":1107,
			"type":"VEC2"
		},
		{
			"bufferView":2,
			"componentType":5126,
			"count":1107,
			"type":"VEC3"
		},
		{
			"bufferView":3,
			"componentType":5123,
			"count":5553,
			"type":"SCALAR"
		}
	],
	"bufferViews":[
		{
			"buffer":0,
			"byteLength":13284,
			"byteOffset":0,
			"target":34962
		},
		{
			"buffer":0,
			"byteLength":8856,
			"byteOffset":13284,
			"target":34962
		},
		{
			"buffer":0,
			"byteLength":13284,
			"byteOffset":22140,
			"target":34962
		},
		{
			"buffer":0,
			"byteLength":11106,
			"byteOffset":35424,
			"target":34963
		}
	],
	"samplers":[
		{
			"magFilter":9729,
			"minFilter":9987
		}
	],
	"buffers":[
		{
			"byteLength":46532,
			"uri":"pipe_02.bin"
		}
	]
}
