{
	"asset":{
		"generator":"Khronos glTF Blender I/O v3.5.30",
		"version":"2.0"
	},
	"scene":0,
	"scenes":[
		{
			"name":"Scene",
			"nodes":[
				0
			]
		}
	],
	"nodes":[
		{
			"mesh":0,
			"name":"pipe_03",
			"translation":[
				-1.3555784225463867,
				0,
				-3.6702919006347656
			]
		}
	],
	"materials":[
		{
			"doubleSided":true,
			"name":"pipe03",
			"normalTexture":{
				"index":0
			},
			"occlusionTexture":{
				"index":1
			},
			"pbrMetallicRoughness":{
				"baseColorTexture":{
					"index":2
				},
				"metallicRoughnessTexture":{
					"index":1
				}
			}
		}
	],
	"meshes":[
		{
			"name":"Cylinder.008",
			"primitives":[
				{
					"attributes":{
						"POSITION":0,
						"TEXCOORD_0":1,
						"NORMAL":2
					},
					"indices":3,
					"material":0
				}
			]
		}
	],
	"textures":[
		{
			"sampler":0,
			"source":0
		},
		{
			"sampler":0,
			"source":1
		},
		{
			"sampler":0,
			"source":2
		}
	],
	"images":[
		{
			"mimeType":"image/png",
			"name":"pipe03_Normal",
			"uri":"tex/pipe03_Normal.png"
		},
		{
			"mimeType":"image/png",
			"name":"pipe03_Mixed_AO-pipe03_Roughness-pipe03_Metallic",
			"uri":"tex/pipe03_Mixed_AO-pipe03_Roughness-pipe03_Metallic.png"
		},
		{
			"mimeType":"image/png",
			"name":"pipe03_Base_color",
			"uri":"tex/pipe03_Base_color.png"
		}
	],
	"accessors":[
		{
			"bufferView":0,
			"componentType":5126,
			"count":1518,
			"max":[
				0.33648666739463806,
				3.2055420875549316,
				0.33648666739463806
			],
			"min":[
				-0.7324477434158325,
				0,
				-0.33648666739463806
			],
			"type":"VEC3"
		},
		{
			"bufferView":1,
			"componentType":5126,
			"count":1518,
			"type":"VEC2"
		},
		{
			"bufferView":2,
			"componentType":5126,
			"count":1518,
			"type":"VEC3"
		},
		{
			"bufferView":3,
			"componentType":5123,
			"count":8256,
			"type":"SCALAR"
		}
	],
	"bufferViews":[
		{
			"buffer":0,
			"byteLength":18216,
			"byteOffset":0,
			"target":34962
		},
		{
			"buffer":0,
			"byteLength":12144,
			"byteOffset":18216,
			"target":34962
		},
		{
			"buffer":0,
			"byteLength":18216,
			"byteOffset":30360,
			"target":34962
		},
		{
			"buffer":0,
			"byteLength":16512,
			"byteOffset":48576,
			"target":34963
		}
	],
	"samplers":[
		{
			"magFilter":9729,
			"minFilter":9987
		}
	],
	"buffers":[
		{
			"byteLength":65088,
			"uri":"pipe_03.bin"
		}
	]
}
