{
	"asset":{
		"generator":"Khronos glTF Blender I/O v3.5.30",
		"version":"2.0"
	},
	"scene":0,
	"scenes":[
		{
			"name":"Scene",
			"nodes":[
				0
			]
		}
	],
	"nodes":[
		{
			"mesh":0,
			"name":"pipe_01",
			"translation":[
				-1.3920929431915283,
				0,
				-2.399876832962036
			]
		}
	],
	"materials":[
		{
			"doubleSided":true,
			"name":"pipe01",
			"normalTexture":{
				"index":0
			},
			"occlusionTexture":{
				"index":1
			},
			"pbrMetallicRoughness":{
				"baseColorTexture":{
					"index":2
				},
				"metallicRoughnessTexture":{
					"index":1
				}
			}
		}
	],
	"meshes":[
		{
			"name":"Cylinder.006",
			"primitives":[
				{
					"attributes":{
						"POSITION":0,
						"TEXCOORD_0":1,
						"NORMAL":2
					},
					"indices":3,
					"material":0
				}
			]
		}
	],
	"textures":[
		{
			"sampler":0,
			"source":0
		},
		{
			"sampler":0,
			"source":1
		},
		{
			"sampler":0,
			"source":2
		}
	],
	"images":[
		{
			"mimeType":"image/png",
			"name":"pipe01_Normal",
			"uri":"tex/pipe01_Normal.png"
		},
		{
			"mimeType":"image/png",
			"name":"pipe01_Mixed_AO-pipe01_Roughness-pipe01_Metallic",
			"uri":"tex/pipe01_Mixed_AO-pipe01_Roughness-pipe01_Metallic.png"
		},
		{
			"mimeType":"image/png",
			"name":"pipe01_Base_color",
			"uri":"tex/pipe01_Base_color.png"
		}
	],
	"accessors":[
		{
			"bufferView":0,
			"componentType":5126,
			"count":957,
			"max":[
				0.20471252501010895,
				2.376655101776123,
				0.20471252501010895
			],
			"min":[
				-0.5118484497070312,
				-0.03759503364562988,
				-0.20471252501010895
			],
			"type":"VEC3"
		},
		{
			"bufferView":1,
			"componentType":5126,
			"count":957,
			"type":"VEC2"
		},
		{
			"bufferView":2,
			"componentType":5126,
			"count":957,
			"type":"VEC3"
		},
		{
			"bufferView":3,
			"componentType":5123,
			"count":5184,
			"type":"SCALAR"
		}
	],
	"bufferViews":[
		{
			"buffer":0,
			"byteLength":11484,
			"byteOffset":0,
			"target":34962
		},
		{
			"buffer":0,
			"byteLength":7656,
			"byteOffset":11484,
			"target":34962
		},
		{
			"buffer":0,
			"byteLength":11484,
			"byteOffset":19140,
			"target":34962
		},
		{
			"buffer":0,
			"byteLength":10368,
			"byteOffset":30624,
			"target":34963
		}
	],
	"samplers":[
		{
			"magFilter":9729,
			"minFilter":9987
		}
	],
	"buffers":[
		{
			"byteLength":40992,
			"uri":"pipe_01.bin"
		}
	]
}
