{
    "asset" : {
        "generator" : "Khronos glTF Blender I/O v3.2.40",
        "version" : "2.0"
    },
    "scene" : 0,
    "scenes" : [
        {
            "name" : "Scene",
            "nodes" : [
                0
            ]
        }
    ],
    "nodes" : [
        {
            "mesh" : 0,
            "name" : "electricBox",
            "translation" : [
                -1.9845004081726074,
                0,
                1.480480432510376
            ]
        }
    ],
    "materials" : [
        {
            "doubleSided" : true,
            "name" : "electricBox1",
            "normalTexture" : {
                "index" : 0
            },
            "occlusionTexture" : {
                "index" : 1
            },
            "pbrMetallicRoughness" : {
                "baseColorTexture" : {
                    "index" : 2
                },
                "metallicRoughnessTexture" : {
                    "index" : 1
                }
            }
        }
    ],
    "meshes" : [
        {
            "name" : "Mesh.011",
            "primitives" : [
                {
                    "attributes" : {
                        "POSITION" : 0,
                        "NORMAL" : 1,
                        "TEXCOORD_0" : 2
                    },
                    "indices" : 3,
                    "material" : 0
                }
            ]
        }
    ],
    "textures" : [
        {
            "sampler" : 0,
            "source" : 0
        },
        {
            "sampler" : 0,
            "source" : 1
        },
        {
            "sampler" : 0,
            "source" : 2
        }
    ],
    "images" : [
        {
            "mimeType" : "image/png",
            "name" : "electricBox_Normal",
            "uri" : "tex/electricBox_Normal.png"
        },
        {
            "mimeType" : "image/png",
            "name" : "electricBox_Mixed_AO-electricBox_Roughness-electricBox_Metallic",
            "uri" : "tex/electricBox_Mixed_AO-electricBox_Roughness-electricBox_Metallic.png"
        },
        {
            "mimeType" : "image/png",
            "name" : "electricBox_Base_color-electricBox_Opacity",
            "uri" : "tex/electricBox_Base_color-electricBox_Opacity.png"
        }
    ],
    "accessors" : [
        {
            "bufferView" : 0,
            "componentType" : 5126,
            "count" : 1636,
            "max" : [
                0.39075350761413574,
                0.13198940455913544,
                0.17500001192092896
            ],
            "min" : [
                -0.25,
                -0.029962176457047462,
                -0.17500001192092896
            ],
            "type" : "VEC3"
        },
        {
            "bufferView" : 1,
            "componentType" : 5126,
            "count" : 1636,
            "type" : "VEC3"
        },
        {
            "bufferView" : 2,
            "componentType" : 5126,
            "count" : 1636,
            "type" : "VEC2"
        },
        {
            "bufferView" : 3,
            "componentType" : 5123,
            "count" : 6648,
            "type" : "SCALAR"
        }
    ],
    "bufferViews" : [
        {
            "buffer" : 0,
            "byteLength" : 19632,
            "byteOffset" : 0
        },
        {
            "buffer" : 0,
            "byteLength" : 19632,
            "byteOffset" : 19632
        },
        {
            "buffer" : 0,
            "byteLength" : 13088,
            "byteOffset" : 39264
        },
        {
            "buffer" : 0,
            "byteLength" : 13296,
            "byteOffset" : 52352
        }
    ],
    "samplers" : [
        {
            "magFilter" : 9729,
            "minFilter" : 9987
        }
    ],
    "buffers" : [
        {
            "byteLength" : 65648,
            "uri" : "electricBox.bin"
        }
    ]
}
