{
	"asset":{
		"generator":"Khronos glTF Blender I/O v3.5.30",
		"version":"2.0"
	},
	"scene":0,
	"scenes":[
		{
			"name":"Scene",
			"nodes":[
				0
			]
		}
	],
	"nodes":[
		{
			"mesh":0,
			"name":"ball02",
			"translation":[
				7.643110275268555,
				0,
				-4.666000843048096
			]
		}
	],
	"materials":[
		{
			"doubleSided":true,
			"emissiveFactor":[
				1,
				1,
				1
			],
			"emissiveTexture":{
				"index":0
			},
			"name":"ball_02",
			"normalTexture":{
				"index":1
			},
			"occlusionTexture":{
				"index":2
			},
			"pbrMetallicRoughness":{
				"baseColorTexture":{
					"index":3
				},
				"metallicRoughnessTexture":{
					"index":2
				}
			}
		}
	],
	"meshes":[
		{
			"name":"Sphere.004",
			"primitives":[
				{
					"attributes":{
						"POSITION":0,
						"TEXCOORD_0":1,
						"NORMAL":2
					},
					"indices":3,
					"material":0
				}
			]
		}
	],
	"textures":[
		{
			"sampler":0,
			"source":0
		},
		{
			"sampler":0,
			"source":1
		},
		{
			"sampler":0,
			"source":2
		},
		{
			"sampler":0,
			"source":3
		}
	],
	"images":[
		{
			"mimeType":"image/png",
			"name":"ball02_Emissive",
			"uri":"tex/ball02_Emissive.png"
		},
		{
			"mimeType":"image/png",
			"name":"ball02_Normal",
			"uri":"tex/ball02_Normal.png"
		},
		{
			"mimeType":"image/png",
			"name":"ball02_Mixed_AO-ball02_Roughness-ball02_Metallic",
			"uri":"tex/ball02_Mixed_AO-ball02_Roughness-ball02_Metallic.png"
		},
		{
			"mimeType":"image/png",
			"name":"ball02_Base_color",
			"uri":"tex/ball02_Base_color.png"
		}
	],
	"accessors":[
		{
			"bufferView":0,
			"componentType":5126,
			"count":5600,
			"max":[
				0.5435367226600647,
				0.4892071485519409,
				0.5183220505714417
			],
			"min":[
				-0.5429396629333496,
				-0.4892071485519409,
				-0.5183220505714417
			],
			"type":"VEC3"
		},
		{
			"bufferView":1,
			"componentType":5126,
			"count":5600,
			"type":"VEC2"
		},
		{
			"bufferView":2,
			"componentType":5126,
			"count":5600,
			"type":"VEC3"
		},
		{
			"bufferView":3,
			"componentType":5123,
			"count":26424,
			"type":"SCALAR"
		}
	],
	"bufferViews":[
		{
			"buffer":0,
			"byteLength":67200,
			"byteOffset":0,
			"target":34962
		},
		{
			"buffer":0,
			"byteLength":44800,
			"byteOffset":67200,
			"target":34962
		},
		{
			"buffer":0,
			"byteLength":67200,
			"byteOffset":112000,
			"target":34962
		},
		{
			"buffer":0,
			"byteLength":52848,
			"byteOffset":179200,
			"target":34963
		}
	],
	"samplers":[
		{
			"magFilter":9729,
			"minFilter":9987
		}
	],
	"buffers":[
		{
			"byteLength":232048,
			"uri":"ball_02.bin"
		}
	]
}
