{
    "asset" : {
        "generator" : "Khronos glTF Blender I/O v3.2.40",
        "version" : "2.0"
    },
    "scene" : 0,
    "scenes" : [
        {
            "name" : "Scene",
            "nodes" : [
                0
            ]
        }
    ],
    "nodes" : [
        {
            "mesh" : 0,
            "name" : "button",
            "translation" : [
                -2.258075714111328,
                0,
                -0.05644784867763519
            ]
        }
    ],
    "materials" : [
        {
            "doubleSided" : true,
            "name" : "button",
            "normalTexture" : {
                "index" : 0
            },
            "occlusionTexture" : {
                "index" : 1
            },
            "pbrMetallicRoughness" : {
                "baseColorTexture" : {
                    "index" : 2
                },
                "metallicRoughnessTexture" : {
                    "index" : 1
                }
            }
        }
    ],
    "meshes" : [
        {
            "name" : "Mesh",
            "primitives" : [
                {
                    "attributes" : {
                        "POSITION" : 0,
                        "NORMAL" : 1,
                        "TEXCOORD_0" : 2
                    },
                    "indices" : 3,
                    "material" : 0
                }
            ]
        }
    ],
    "textures" : [
        {
            "sampler" : 0,
            "source" : 0
        },
        {
            "sampler" : 0,
            "source" : 1
        },
        {
            "sampler" : 0,
            "source" : 2
        }
    ],
    "images" : [
        {
            "mimeType" : "image/png",
            "name" : "button_Normal",
            "uri" : "tex/button_Normal.png"
        },
        {
            "mimeType" : "image/png",
            "name" : "AO-button_Roughness-button_Metallic",
            "uri" : "tex/AO-button_Roughness-button_Metallic.png"
        },
        {
            "mimeType" : "image/png",
            "name" : "button_Base_color-button_Opacity",
            "uri" : "tex/button_Base_color-button_Opacity.png"
        }
    ],
    "accessors" : [
        {
            "bufferView" : 0,
            "componentType" : 5126,
            "count" : 338,
            "max" : [
                0.04999999701976776,
                0.05299999937415123,
                0.04999999701976776
            ],
            "min" : [
                -0.04999999701976776,
                -2.1855692811101335e-09,
                -0.05000000074505806
            ],
            "type" : "VEC3"
        },
        {
            "bufferView" : 1,
            "componentType" : 5126,
            "count" : 338,
            "type" : "VEC3"
        },
        {
            "bufferView" : 2,
            "componentType" : 5126,
            "count" : 338,
            "type" : "VEC2"
        },
        {
            "bufferView" : 3,
            "componentType" : 5123,
            "count" : 930,
            "type" : "SCALAR"
        }
    ],
    "bufferViews" : [
        {
            "buffer" : 0,
            "byteLength" : 4056,
            "byteOffset" : 0
        },
        {
            "buffer" : 0,
            "byteLength" : 4056,
            "byteOffset" : 4056
        },
        {
            "buffer" : 0,
            "byteLength" : 2704,
            "byteOffset" : 8112
        },
        {
            "buffer" : 0,
            "byteLength" : 1860,
            "byteOffset" : 10816
        }
    ],
    "samplers" : [
        {
            "magFilter" : 9729,
            "minFilter" : 9987
        }
    ],
    "buffers" : [
        {
            "byteLength" : 12676,
            "uri" : "button.bin"
        }
    ]
}
