{
	"asset":{
		"generator":"Khronos glTF Blender I/O v3.5.30",
		"version":"2.0"
	},
	"scene":0,
	"scenes":[
		{
			"name":"Scene",
			"nodes":[
				0
			]
		}
	],
	"nodes":[
		{
			"mesh":0,
			"name":"stairs_02",
			"translation":[
				-0.049745798110961914,
				0,
				-5.037048816680908
			]
		}
	],
	"materials":[
		{
			"doubleSided":true,
			"name":"stairs_02",
			"normalTexture":{
				"index":0
			},
			"occlusionTexture":{
				"index":1
			},
			"pbrMetallicRoughness":{
				"baseColorTexture":{
					"index":2
				},
				"metallicRoughnessTexture":{
					"index":1
				}
			}
		}
	],
	"meshes":[
		{
			"name":"Cube.022",
			"primitives":[
				{
					"attributes":{
						"POSITION":0,
						"TEXCOORD_0":1,
						"NORMAL":2
					},
					"indices":3,
					"material":0
				}
			]
		}
	],
	"textures":[
		{
			"sampler":0,
			"source":0
		},
		{
			"sampler":0,
			"source":1
		},
		{
			"sampler":0,
			"source":2
		}
	],
	"images":[
		{
			"mimeType":"image/png",
			"name":"DefaultMaterial_Normal",
			"uri":"tex/DefaultMaterial_Normal.png"
		},
		{
			"mimeType":"image/png",
			"name":"DefaultMaterial_Mixed_AO-DefaultMaterial_Roughness-DefaultMaterial_Metallic",
			"uri":"tex/DefaultMaterial_Mixed_AO-DefaultMaterial_Roughness-DefaultMaterial_Metallic.png"
		},
		{
			"mimeType":"image/png",
			"name":"DefaultMaterial_Base_color",
			"uri":"tex/DefaultMaterial_Base_color.png"
		}
	],
	"accessors":[
		{
			"bufferView":0,
			"componentType":5126,
			"count":1374,
			"max":[
				1.013365626335144,
				1.8706681728363037,
				1.0990421772003174
			],
			"min":[
				-0.4294085204601288,
				5.657648216583766e-08,
				-1.0990421772003174
			],
			"type":"VEC3"
		},
		{
			"bufferView":1,
			"componentType":5126,
			"count":1374,
			"type":"VEC2"
		},
		{
			"bufferView":2,
			"componentType":5126,
			"count":1374,
			"type":"VEC3"
		},
		{
			"bufferView":3,
			"componentType":5123,
			"count":5136,
			"type":"SCALAR"
		}
	],
	"bufferViews":[
		{
			"buffer":0,
			"byteLength":16488,
			"byteOffset":0,
			"target":34962
		},
		{
			"buffer":0,
			"byteLength":10992,
			"byteOffset":16488,
			"target":34962
		},
		{
			"buffer":0,
			"byteLength":16488,
			"byteOffset":27480,
			"target":34962
		},
		{
			"buffer":0,
			"byteLength":10272,
			"byteOffset":43968,
			"target":34963
		}
	],
	"samplers":[
		{
			"magFilter":9729,
			"minFilter":9987
		}
	],
	"buffers":[
		{
			"byteLength":54240,
			"uri":"stairs_02.bin"
		}
	]
}
