{
    "asset" : {
        "generator" : "Khronos glTF Blender I/O v3.2.40",
        "version" : "2.0"
    },
    "scene" : 0,
    "scenes" : [
        {
            "name" : "Scene",
            "nodes" : [
                0
            ]
        }
    ],
    "nodes" : [
        {
            "mesh" : 0,
            "name" : "electricBox2Door",
            "translation" : [
                -1.6783891916275024,
                0.3105263411998749,
                -0.8698133230209351
            ]
        }
    ],
    "materials" : [
        {
            "doubleSided" : true,
            "name" : "electricBoxDoor",
            "normalTexture" : {
                "index" : 0
            },
            "occlusionTexture" : {
                "index" : 1
            },
            "pbrMetallicRoughness" : {
                "baseColorTexture" : {
                    "index" : 2
                },
                "metallicRoughnessTexture" : {
                    "index" : 1
                }
            }
        }
    ],
    "meshes" : [
        {
            "name" : "Mesh.008",
            "primitives" : [
                {
                    "attributes" : {
                        "POSITION" : 0,
                        "NORMAL" : 1,
                        "TEXCOORD_0" : 2
                    },
                    "indices" : 3,
                    "material" : 0
                }
            ]
        }
    ],
    "textures" : [
        {
            "sampler" : 0,
            "source" : 0
        },
        {
            "sampler" : 0,
            "source" : 1
        },
        {
            "sampler" : 0,
            "source" : 2
        }
    ],
    "images" : [
        {
            "mimeType" : "image/png",
            "name" : "electricBoxDoor_Normal",
            "uri" : "tex/electricBoxDoor_Normal.png"
        },
        {
            "mimeType" : "image/png",
            "name" : "AO-electricBoxDoor_Roughness-electricBoxDoor_Metallic",
            "uri" : "tex/AO-electricBoxDoor_Roughness-electricBoxDoor_Metallic.png"
        },
        {
            "mimeType" : "image/png",
            "name" : "electricBoxDoor_Base_color-electricBoxDoor_Opacity",
            "uri" : "tex/electricBoxDoor_Base_color-electricBoxDoor_Opacity.png"
        }
    ],
    "accessors" : [
        {
            "bufferView" : 0,
            "componentType" : 5126,
            "count" : 272,
            "max" : [
                0.007500133477151394,
                0.7484269142150879,
                0.4647759199142456
            ],
            "min" : [
                -0.007500028237700462,
                -0.007911622524261475,
                -0.4646983742713928
            ],
            "type" : "VEC3"
        },
        {
            "bufferView" : 1,
            "componentType" : 5126,
            "count" : 272,
            "type" : "VEC3"
        },
        {
            "bufferView" : 2,
            "componentType" : 5126,
            "count" : 272,
            "type" : "VEC2"
        },
        {
            "bufferView" : 3,
            "componentType" : 5123,
            "count" : 888,
            "type" : "SCALAR"
        }
    ],
    "bufferViews" : [
        {
            "buffer" : 0,
            "byteLength" : 3264,
            "byteOffset" : 0
        },
        {
            "buffer" : 0,
            "byteLength" : 3264,
            "byteOffset" : 3264
        },
        {
            "buffer" : 0,
            "byteLength" : 2176,
            "byteOffset" : 6528
        },
        {
            "buffer" : 0,
            "byteLength" : 1776,
            "byteOffset" : 8704
        }
    ],
    "samplers" : [
        {
            "magFilter" : 9729,
            "minFilter" : 9987
        }
    ],
    "buffers" : [
        {
            "byteLength" : 10480,
            "uri" : "electricBox2Door.bin"
        }
    ]
}
