{
	"asset":{
		"generator":"Khronos glTF Blender I/O v3.5.30",
		"version":"2.0"
	},
	"scene":0,
	"scenes":[
		{
			"name":"Scene",
			"nodes":[
				0
			]
		}
	],
	"nodes":[
		{
			"mesh":0,
			"name":"power_station",
			"translation":[
				6.039838790893555,
				0,
				3.994102716445923
			]
		}
	],
	"materials":[
		{
			"doubleSided":true,
			"name":"power",
			"normalTexture":{
				"index":0
			},
			"occlusionTexture":{
				"index":1
			},
			"pbrMetallicRoughness":{
				"baseColorTexture":{
					"index":2
				},
				"metallicRoughnessTexture":{
					"index":1
				}
			}
		}
	],
	"meshes":[
		{
			"name":"Cube.034",
			"primitives":[
				{
					"attributes":{
						"POSITION":0,
						"TEXCOORD_0":1,
						"NORMAL":2
					},
					"indices":3,
					"material":0
				}
			]
		}
	],
	"textures":[
		{
			"sampler":0,
			"source":0
		},
		{
			"sampler":0,
			"source":1
		},
		{
			"sampler":0,
			"source":2
		}
	],
	"images":[
		{
			"mimeType":"image/png",
			"name":"power_Normal_OpenGL",
			"uri":"tex/power_Normal_OpenGL.png"
		},
		{
			"mimeType":"image/png",
			"name":"power_Mixed_AO-power_Roughness-power_Metallic",
			"uri":"tex/power_Mixed_AO-power_Roughness-power_Metallic.png"
		},
		{
			"mimeType":"image/png",
			"name":"power_Base_color",
			"uri":"tex/power_Base_color.png"
		}
	],
	"accessors":[
		{
			"bufferView":0,
			"componentType":5126,
			"count":2552,
			"max":[
				1.0687073469161987,
				3.0321648120880127,
				1.1109496355056763
			],
			"min":[
				-1.0687073469161987,
				0,
				-1.1109496355056763
			],
			"type":"VEC3"
		},
		{
			"bufferView":1,
			"componentType":5126,
			"count":2552,
			"type":"VEC2"
		},
		{
			"bufferView":2,
			"componentType":5126,
			"count":2552,
			"type":"VEC3"
		},
		{
			"bufferView":3,
			"componentType":5123,
			"count":5136,
			"type":"SCALAR"
		}
	],
	"bufferViews":[
		{
			"buffer":0,
			"byteLength":30624,
			"byteOffset":0,
			"target":34962
		},
		{
			"buffer":0,
			"byteLength":20416,
			"byteOffset":30624,
			"target":34962
		},
		{
			"buffer":0,
			"byteLength":30624,
			"byteOffset":51040,
			"target":34962
		},
		{
			"buffer":0,
			"byteLength":10272,
			"byteOffset":81664,
			"target":34963
		}
	],
	"samplers":[
		{
			"magFilter":9729,
			"minFilter":9987
		}
	],
	"buffers":[
		{
			"byteLength":91936,
			"uri":"power_station.bin"
		}
	]
}
