{
	"asset":{
		"generator":"Khronos glTF Blender I/O v3.5.30",
		"version":"2.0"
	},
	"scene":0,
	"scenes":[
		{
			"name":"Scene",
			"nodes":[
				0
			]
		}
	],
	"nodes":[
		{
			"mesh":0,
			"name":"bot_part_01",
			"scale":[
				1,
				0.4793074131011963,
				0.5986020565032959
			]
		}
	],
	"materials":[
		{
			"doubleSided":true,
			"name":"bPart1",
			"normalTexture":{
				"index":0
			},
			"occlusionTexture":{
				"index":1
			},
			"pbrMetallicRoughness":{
				"baseColorTexture":{
					"index":2
				},
				"metallicRoughnessTexture":{
					"index":1
				}
			}
		}
	],
	"meshes":[
		{
			"name":"Cube.010",
			"primitives":[
				{
					"attributes":{
						"POSITION":0,
						"TEXCOORD_0":1,
						"NORMAL":2
					},
					"indices":3,
					"material":0
				}
			]
		}
	],
	"textures":[
		{
			"sampler":0,
			"source":0
		},
		{
			"sampler":0,
			"source":1
		},
		{
			"sampler":0,
			"source":2
		}
	],
	"images":[
		{
			"mimeType":"image/png",
			"name":"AI_bot_Normal_OpenGL",
			"uri":"tex/AI_bot_Normal_OpenGL.png"
		},
		{
			"mimeType":"image/png",
			"name":"AI_bot_Mixed_AO.png-AI_bot_Roughness.png-AI_bot_Metallic.png",
			"uri":"tex/AI_bot_Mixed_AO_png-AI_bot_Roughness_png-AI_bot_Metallic_png.png"
		},
		{
			"mimeType":"image/png",
			"name":"AI_bot_Base_color",
			"uri":"tex/AI_bot_Base_color.png"
		}
	],
	"accessors":[
		{
			"bufferView":0,
			"componentType":5126,
			"count":1111,
			"max":[
				1.2062305212020874,
				1.1195801496505737,
				1.0260040760040283
			],
			"min":[
				-1.2924169301986694,
				-0.6986121535301208,
				-1.0260040760040283
			],
			"type":"VEC3"
		},
		{
			"bufferView":1,
			"componentType":5126,
			"count":1111,
			"type":"VEC2"
		},
		{
			"bufferView":2,
			"componentType":5126,
			"count":1111,
			"type":"VEC3"
		},
		{
			"bufferView":3,
			"componentType":5123,
			"count":2958,
			"type":"SCALAR"
		}
	],
	"bufferViews":[
		{
			"buffer":0,
			"byteLength":13332,
			"byteOffset":0,
			"target":34962
		},
		{
			"buffer":0,
			"byteLength":8888,
			"byteOffset":13332,
			"target":34962
		},
		{
			"buffer":0,
			"byteLength":13332,
			"byteOffset":22220,
			"target":34962
		},
		{
			"buffer":0,
			"byteLength":5916,
			"byteOffset":35552,
			"target":34963
		}
	],
	"samplers":[
		{
			"magFilter":9729,
			"minFilter":9987
		}
	],
	"buffers":[
		{
			"byteLength":41468,
			"uri":"bot_part_01.bin"
		}
	]
}
